<svg width="50" height="51" viewBox="0 0 50 51" fill="none" xmlns="http://www.w3.org/2000/svg">
<path d="M25.5492 41.8865C25.5592 41.875 25.5693 41.8636 25.5789 41.8516L42.6807 20.9124C42.8967 20.6502 42.8977 20.2686 42.6972 20.0044L40.9595 17.6223C40.7209 17.2951 40.2625 17.2234 39.9356 17.4626C39.6088 17.7015 39.5374 18.1604 39.7761 18.4876L40.671 19.7145H32.1517L36.4114 13.8749L37.4937 15.3585C37.7324 15.6857 38.1907 15.7573 38.5176 15.5183C38.8444 15.2793 38.9158 14.8204 38.6771 14.4932L37.0032 12.1983C36.8677 12.0122 36.6409 11.8961 36.4083 11.8975H13.6028C13.379 11.8975 13.1405 12.0189 13.0083 12.2023L7.31691 20.0045C7.11643 20.2685 7.1175 20.6504 7.33342 20.9125L16.0312 31.562C16.3607 31.8822 16.7044 31.9167 17.0623 31.6656C17.3756 31.4091 17.422 30.9469 17.1658 30.6333L9.44636 21.1816H18.7452L23.3946 38.2597L19.7136 33.7527C19.4573 33.4391 18.9959 33.3927 18.6825 33.6491C18.3691 33.9055 18.3228 34.3677 18.579 34.6814L24.4356 41.852C24.7148 42.1992 25.2498 42.2163 25.5492 41.8865ZM25.007 38.6032L20.264 21.1816H29.75L25.007 38.6032ZM20.7473 19.7145L25.007 13.8749L29.2667 19.7145H20.7473ZM19.3049 19.2042L15.0452 13.3646H23.5646L19.3049 19.2042ZM40.5677 21.1816L26.6195 38.2597L31.2689 21.1816H40.5677ZM30.7092 19.2042L26.4495 13.3646H34.9688L30.7092 19.2042ZM9.34309 19.7145L13.6028 13.8749L17.8625 19.7145H9.34309Z" fill="#C3A463"/>
</svg>
