<svg width="50" height="51" viewBox="0 0 50 51" fill="none" xmlns="http://www.w3.org/2000/svg">
<g clip-path="url(#clip0)">
<mask id="path-1-inside-1" fill="white">
<path d="M42.6777 8.12598C37.9559 3.4041 31.6777 0.803711 25 0.803711C18.3223 0.803711 12.0441 3.4041 7.32227 8.12598C2.60039 12.8479 0 19.126 0 25.8037C0 32.4814 2.60049 38.7595 7.32227 43.4814C12.044 48.2034 18.3223 50.8037 25 50.8037C31.6777 50.8037 37.9559 48.2033 42.6777 43.4814C47.3996 38.7596 50 32.4814 50 25.8037C50 19.126 47.3995 12.8479 42.6777 8.12598ZM25 24.2412C28.8771 24.2412 32.0312 27.3954 32.0312 31.2725C32.0312 34.4831 29.8675 37.1962 26.9221 38.0345C26.7104 38.0947 26.5625 38.2851 26.5625 38.5051V39.8221C26.5625 40.6635 25.9159 41.3874 25.0755 41.427C24.1781 41.4691 23.4375 40.7542 23.4375 39.8662V38.5048C23.4375 38.2854 23.2904 38.0949 23.0794 38.0349C20.1466 37.2009 17.9884 34.5082 17.9688 31.3161C17.9637 30.4641 18.6336 29.7351 19.4854 29.7106C20.3692 29.6853 21.0938 30.3942 21.0938 31.2725C21.0938 33.5187 22.9997 35.3283 25.2792 35.1689C27.2034 35.0345 28.7621 33.4757 28.8965 31.5515C29.0557 29.2719 27.2462 27.3662 25 27.3662C21.1229 27.3662 17.9688 24.212 17.9688 20.335C17.9688 17.1243 20.1325 14.4112 23.0779 13.5729C23.2896 13.5127 23.4375 13.3224 23.4375 13.1023V11.7854C23.4375 10.9439 24.0841 10.22 24.9245 10.1805C25.8219 10.1383 26.5625 10.8532 26.5625 11.7412V13.1026C26.5625 13.3221 26.7096 13.5125 26.9206 13.5726C29.8534 14.4065 32.0116 17.0992 32.0312 20.2913C32.0363 21.1434 31.3664 21.8724 30.5146 21.8968C29.6308 21.9222 28.9062 21.2132 28.9062 20.335C28.9062 18.0887 27.0003 16.2791 24.7208 16.4385C22.7966 16.5729 21.2379 18.1317 21.1035 20.056C20.9443 22.3355 22.7538 24.2412 25 24.2412Z"/>
</mask>
<path d="M26.9221 38.0345L26.6483 37.0727L26.6482 37.0727L26.9221 38.0345ZM25.0755 41.427L25.1224 42.4258L25.1225 42.4258L25.0755 41.427ZM23.0794 38.0349L23.3531 37.0731L23.3529 37.073L23.0794 38.0349ZM17.9688 31.3161L16.9689 31.3222V31.3222L17.9688 31.3161ZM19.4854 29.7106L19.514 30.7102L19.5141 30.7102L19.4854 29.7106ZM25.2792 35.1689L25.2095 34.1714H25.2095L25.2792 35.1689ZM28.8965 31.5515L29.8941 31.6211V31.6211L28.8965 31.5515ZM23.0779 13.5729L23.3517 14.5348L23.3518 14.5347L23.0779 13.5729ZM24.9245 10.1805L24.8776 9.18157L24.8775 9.18157L24.9245 10.1805ZM26.9206 13.5726L26.6469 14.5344L26.6471 14.5344L26.9206 13.5726ZM32.0312 20.2913L33.0311 20.2852V20.2852L32.0312 20.2913ZM30.5146 21.8968L30.486 20.8972L30.4859 20.8972L30.5146 21.8968ZM24.7208 16.4385L24.7905 17.436L24.7905 17.436L24.7208 16.4385ZM21.1035 20.056L20.1059 19.9863V19.9863L21.1035 20.056ZM43.3848 7.41887C38.4754 2.50945 31.9429 -0.196289 25 -0.196289V1.80371C31.4125 1.80371 37.4363 4.29875 41.9706 8.83308L43.3848 7.41887ZM25 -0.196289C18.0571 -0.196289 11.5246 2.50945 6.61516 7.41887L8.02937 8.83308C12.5637 4.29875 18.5875 1.80371 25 1.80371V-0.196289ZM6.61516 7.41887C1.70574 12.3283 -1 18.8608 -1 25.8037H1C1 19.3912 3.49504 13.3674 8.02937 8.83308L6.61516 7.41887ZM-1 25.8037C-1 32.7467 1.70585 39.279 6.61514 44.1885L8.02939 42.7744C3.49513 38.2399 1 32.2162 1 25.8037H-1ZM6.61514 44.1885C11.5245 49.0981 18.0571 51.8037 25 51.8037V49.8037C18.5875 49.8037 12.5636 47.3088 8.02939 42.7744L6.61514 44.1885ZM25 51.8037C31.9429 51.8037 38.4754 49.098 43.3848 44.1886L41.9706 42.7743C37.4363 47.3087 31.4125 49.8037 25 49.8037V51.8037ZM43.3848 44.1886C48.2943 39.2791 51 32.7467 51 25.8037H49C49 32.2162 46.505 38.24 41.9706 42.7743L43.3848 44.1886ZM51 25.8037C51 18.8608 48.2942 12.3284 43.3849 7.41888L41.9706 8.83307C46.5049 13.3675 49 19.3912 49 25.8037H51ZM25 25.2412C28.3248 25.2412 31.0312 27.9477 31.0312 31.2725H33.0312C33.0312 26.8431 29.4293 23.2412 25 23.2412V25.2412ZM31.0312 31.2725C31.0312 34.0231 29.1767 36.3531 26.6483 37.0727L27.1958 38.9963C30.5582 38.0393 33.0312 34.9431 33.0312 31.2725H31.0312ZM26.6482 37.0727C26.02 37.2516 25.5625 37.8247 25.5625 38.5051H27.5625C27.5625 38.7454 27.4009 38.9379 27.1959 38.9963L26.6482 37.0727ZM25.5625 38.5051V39.8221H27.5625V38.5051H25.5625ZM25.5625 39.8221C25.5625 40.1671 25.2987 40.4153 25.0285 40.4281L25.1225 42.4258C26.5331 42.3595 27.5625 41.1599 27.5625 39.8221H25.5625ZM25.0285 40.4281C24.7039 40.4433 24.4375 40.1861 24.4375 39.8662H22.4375C22.4375 41.3223 23.6523 42.495 25.1224 42.4258L25.0285 40.4281ZM24.4375 39.8662V38.5048H22.4375V39.8662H24.4375ZM24.4375 38.5048C24.4375 37.828 23.9838 37.2525 23.3531 37.0731L22.8057 38.9967C22.597 38.9373 22.4375 38.7427 22.4375 38.5048H24.4375ZM23.3529 37.073C20.8354 36.3571 18.9856 34.0446 18.9688 31.31L16.9689 31.3222C16.9912 34.9718 19.4578 38.0447 22.8059 38.9967L23.3529 37.073ZM18.9688 31.31C18.9668 30.9726 19.2339 30.7183 19.514 30.7102L19.4567 28.7111C18.0333 28.7519 16.9606 29.9555 16.9689 31.3222L18.9688 31.31ZM19.5141 30.7102C19.833 30.7011 20.0938 30.9561 20.0938 31.2725H22.0938C22.0938 29.8324 20.9055 28.6694 19.4566 28.7111L19.5141 30.7102ZM20.0938 31.2725C20.0938 34.0941 22.4867 36.3666 25.3489 36.1665L25.2095 34.1714C23.5127 34.29 22.0938 32.9434 22.0938 31.2725H20.0938ZM25.3489 36.1665C27.7705 35.9973 29.7249 34.0427 29.8941 31.6211L27.8989 31.4818C27.7993 32.9087 26.6363 34.0717 25.2095 34.1714L25.3489 36.1665ZM29.8941 31.6211C30.0939 28.7589 27.8215 26.3662 25 26.3662V28.3662C26.6709 28.3662 28.0174 29.7849 27.8989 31.4818L29.8941 31.6211ZM25 26.3662C21.6752 26.3662 18.9688 23.6597 18.9688 20.335H16.9688C16.9688 24.7643 20.5707 28.3662 25 28.3662V26.3662ZM18.9688 20.335C18.9688 17.5843 20.8233 15.2543 23.3517 14.5348L22.8042 12.6111C19.4418 13.5681 16.9688 16.6643 16.9688 20.335H18.9688ZM23.3518 14.5347C23.98 14.3559 24.4375 13.7827 24.4375 13.1023H22.4375C22.4375 12.862 22.5991 12.6695 22.8041 12.6112L23.3518 14.5347ZM24.4375 13.1023V11.7854H22.4375V13.1023H24.4375ZM24.4375 11.7854C24.4375 11.4403 24.7013 11.1921 24.9715 11.1794L24.8775 9.18157C23.4669 9.24796 22.4375 10.4476 22.4375 11.7854H24.4375ZM24.9715 11.1794C25.2961 11.1641 25.5625 11.4213 25.5625 11.7412H27.5625C27.5625 10.2852 26.3477 9.11246 24.8776 9.18157L24.9715 11.1794ZM25.5625 11.7412V13.1026H27.5625V11.7412H25.5625ZM25.5625 13.1026C25.5625 13.7794 26.0162 14.3549 26.6469 14.5344L27.1943 12.6108C27.403 12.6701 27.5625 12.8648 27.5625 13.1026H25.5625ZM26.6471 14.5344C29.1646 15.2503 31.0144 17.5628 31.0312 20.2974L33.0311 20.2852C33.0088 16.6356 30.5422 13.5628 27.1941 12.6107L26.6471 14.5344ZM31.0312 20.2974C31.0332 20.6348 30.7661 20.8892 30.486 20.8972L30.5433 22.8964C31.9667 22.8556 33.0394 21.6519 33.0311 20.2852L31.0312 20.2974ZM30.4859 20.8972C30.167 20.9064 29.9062 20.6513 29.9062 20.335H27.9062C27.9062 21.7751 29.0945 22.938 30.5434 22.8964L30.4859 20.8972ZM29.9062 20.335C29.9062 17.5133 27.5133 15.2408 24.6511 15.4409L24.7905 17.436C26.4873 17.3174 27.9062 18.664 27.9062 20.335H29.9062ZM24.6511 15.4409C22.2295 15.6101 20.2751 17.5647 20.1059 19.9863L22.1011 20.1256C22.2007 18.6987 23.3637 17.5358 24.7905 17.436L24.6511 15.4409ZM20.1059 19.9863C19.9061 22.8485 22.1785 25.2412 25 25.2412V23.2412C23.3291 23.2412 21.9826 21.8225 22.1011 20.1256L20.1059 19.9863Z" fill="#C3A463" mask="url(#path-1-inside-1)"/>
</g>
<defs>
<clipPath id="clip0">
<rect width="50" height="50" fill="white" transform="translate(0 0.803711)"/>
</clipPath>
</defs>
</svg>
