<svg width="50" height="51" viewBox="0 0 50 51" fill="none" xmlns="http://www.w3.org/2000/svg">
<g clip-path="url(#clip0)">
<path d="M1.86945 48.1954C3.08505 49.4017 4.72954 50.0751 6.44111 50.0675C6.60111 50.0675 6.76111 50.0617 6.92195 50.05C7.79611 49.9866 8.73695 49.9099 9.72611 49.8164H9.74361H9.76195C19.7336 48.8678 34.8578 46.2023 42.3553 38.6962C47.8361 33.2091 50.392 27.5693 49.9503 21.9353C49.5745 17.1331 47.0195 12.3318 42.3553 7.66311C37.6911 2.99443 32.8961 0.435666 28.0995 0.0594017C22.4711 -0.386943 16.8386 2.17933 11.3578 7.66311C3.85278 15.1767 1.19278 30.3408 0.249447 40.3239V40.3297C0.156114 41.32 0.0827808 42.2611 0.0161141 43.1371C-0.128749 45.0126 0.547597 46.8585 1.86945 48.1954ZM6.80278 48.3856C5.4105 48.5064 4.03608 48.0049 3.0479 47.0156C2.05972 46.0263 1.55882 44.6503 1.67945 43.2564C1.72695 42.594 1.78278 41.8915 1.84611 41.1607C3.66352 41.3019 5.36306 42.1164 6.61278 43.445C7.9308 44.7022 8.74035 46.4012 8.88695 48.2179C8.16111 48.2822 7.46195 48.3389 6.80278 48.3856ZM12.5361 8.8403C17.2886 4.08485 22.1028 1.67876 26.8628 1.67876C27.2328 1.67876 27.6014 1.69322 27.9686 1.72214C32.3586 2.0667 36.8019 4.46195 41.1769 8.84197C45.5519 13.222 47.9445 17.6704 48.2886 22.0655C48.6911 27.1905 46.2978 32.3898 41.1769 37.5157C34.2603 44.4403 20.2544 47.0649 10.5411 48.0594C10.3577 45.8575 9.38025 43.7977 7.79111 42.2644C6.25608 40.6775 4.19834 39.7017 1.99945 39.5179C2.99945 29.7943 5.61862 15.7682 12.5361 8.8428V8.8403Z" fill="#C3A463"/>
<path d="M38.467 11.5568C38.7939 11.8729 39.3137 11.8684 39.6351 11.5466C39.9566 11.2248 39.9611 10.7044 39.6453 10.3771C39.1686 9.89985 38.6936 9.44906 38.2203 9.02469C37.8763 8.71736 37.3485 8.74742 37.0415 9.09185C36.7346 9.43627 36.7646 9.96462 37.1086 10.2719C37.5603 10.673 38.0131 11.1012 38.467 11.5568Z" fill="#C3A463"/>
<path d="M14.6586 11.8015C14.8796 11.8014 15.0915 11.7135 15.2478 11.557C21.5661 5.23145 27.3253 3.93831 33.3728 7.49071C33.7694 7.7196 34.2761 7.58538 34.5078 7.19009C34.7394 6.7948 34.6092 6.28646 34.2161 6.05156C27.5053 2.10871 20.9169 3.52366 14.0695 10.3773C13.8312 10.616 13.7599 10.9747 13.8889 11.2864C14.0178 11.5981 14.3216 11.8014 14.6586 11.8015Z" fill="#C3A463"/>
<path d="M23.2126 10.9669C22.916 11.0583 22.6947 11.307 22.6382 11.6124C22.5817 11.9179 22.6994 12.2294 22.9436 12.421C23.1879 12.6126 23.5182 12.6525 23.8009 12.5245C27.4159 11.163 30.9851 12.2033 34.4001 15.6248L34.4217 15.6448C37.8142 19.0579 38.8434 22.6186 37.4826 26.2302C37.3199 26.6613 37.537 27.1428 37.9676 27.3056C38.3981 27.4685 38.879 27.2511 39.0417 26.8201C40.1542 23.8692 40.4534 19.324 35.5676 14.4326C35.5601 14.4244 35.5521 14.4169 35.5434 14.41C30.6742 9.56032 26.1526 9.85482 23.2126 10.9669Z" fill="#C3A463"/>
</g>
<defs>
<clipPath id="clip0">
<rect width="50" height="50.0573" fill="white" transform="translate(0 0.0102539)"/>
</clipPath>
</defs>
</svg>
