<svg width="50" height="51" viewBox="0 0 50 51" fill="none" xmlns="http://www.w3.org/2000/svg">
<g clip-path="url(#clip0)">
<path d="M25.0382 11.1401C17.9614 11.1401 12.1797 16.9218 12.1797 23.9986C12.1797 27.6989 13.7986 31.2604 16.5275 33.6656C18.5627 35.7007 18.3777 40.0486 18.3314 40.0948C18.3314 40.3261 18.3777 40.5111 18.5627 40.6961C18.7014 40.8349 18.9327 40.9274 19.1177 40.9274H30.9123C31.1436 40.9274 31.3286 40.8349 31.4674 40.6961C31.6061 40.5573 31.6987 40.3261 31.6987 40.0948C31.6987 40.0486 31.4674 35.7007 33.5025 33.6656C33.5488 33.6193 33.595 33.5731 33.6413 33.5268C36.324 31.0754 37.8966 27.6064 37.8966 23.9986C37.8966 16.9218 32.1149 11.1401 25.0382 11.1401ZM32.4387 32.463C32.3925 32.5092 32.2999 32.6017 32.2999 32.648C30.4961 34.5906 30.1723 37.7821 30.126 39.3085H19.904C19.8578 37.7821 19.534 34.4519 17.5913 32.463C15.1399 30.3353 13.7061 27.2363 13.7061 23.9523C13.7061 17.7081 18.7477 12.6665 24.9919 12.6665C31.2361 12.6665 36.2777 17.7081 36.2777 23.9523C36.2777 27.2363 34.8901 30.3353 32.4387 32.463Z" fill="#C3A463"/>
<path d="M24.9919 14.4243C24.5756 14.4243 24.2056 14.7943 24.2056 15.2106C24.2056 15.6269 24.5756 15.9969 24.9919 15.9969C29.6635 15.9969 33.41 19.7897 33.41 24.4151C33.41 24.8314 33.78 25.2014 34.1963 25.2014C34.6126 25.2014 34.9826 24.8314 34.9826 24.4151C35.0289 18.9109 30.5423 14.4243 24.9919 14.4243Z" fill="#C3A463"/>
<path d="M30.1262 41.8062H19.8579C18.7941 41.8062 17.9153 42.685 17.9153 43.7488C17.9153 44.8126 18.7941 45.6915 19.8579 45.6915H30.08C31.19 45.6452 32.0689 44.8126 32.0689 43.7488C32.0689 42.685 31.19 41.8062 30.1262 41.8062ZM30.1262 44.0726H19.8579C19.6729 44.0726 19.4879 43.9338 19.4879 43.7025C19.4879 43.4713 19.6267 43.3325 19.8579 43.3325H30.08C30.265 43.3325 30.45 43.4713 30.45 43.7025C30.45 43.9338 30.3112 44.0726 30.1262 44.0726Z" fill="#C3A463"/>
<path d="M28.5996 46.478H21.3841C20.3202 46.478 19.4414 47.3568 19.4414 48.4207C19.4414 49.4845 20.3202 50.3633 21.3841 50.3633H28.5996C29.6634 50.3633 30.5422 49.4845 30.5422 48.4207C30.5422 47.3106 29.6634 46.478 28.5996 46.478ZM28.5996 48.7445H21.3841C21.199 48.7445 21.014 48.6057 21.014 48.3744C21.014 48.1432 21.1528 48.0044 21.3841 48.0044H28.5996C28.7846 48.0044 28.9696 48.1432 28.9696 48.3744C28.9696 48.6057 28.7846 48.7445 28.5996 48.7445Z" fill="#C3A463"/>
<path d="M24.9919 7.3013C25.4544 7.3013 25.7782 6.93128 25.7782 6.51499V1.14959C25.7782 0.733309 25.4082 0.363281 24.9919 0.363281C24.5756 0.363281 24.2056 0.733309 24.2056 1.14959V6.51499C24.2056 6.93128 24.5756 7.3013 24.9919 7.3013Z" fill="#C3A463"/>
<path d="M38.0814 4.34118C37.7114 4.06366 37.2489 4.20242 37.0176 4.5262L34.0574 8.96653C33.7798 9.33656 33.8723 9.84534 34.2424 10.0766C34.3811 10.1691 34.5199 10.2154 34.6587 10.2154C34.9362 10.2154 35.1674 10.0766 35.3062 9.84534L38.2664 5.40501C38.5439 5.08124 38.4514 4.57245 38.0814 4.34118Z" fill="#C3A463"/>
<path d="M15.6024 10.0303C15.7412 10.0303 15.8799 9.98403 16.0187 9.89152C16.3887 9.66026 16.4812 9.15147 16.2499 8.78144L13.3822 4.29485C13.151 3.92482 12.6422 3.83232 12.2721 4.06359C11.9021 4.29485 11.8096 4.80364 12.0409 5.17367L14.9086 9.66026C15.0936 9.93778 15.3249 10.0303 15.6024 10.0303Z" fill="#C3A463"/>
<path d="M10.0058 14.9332L5.33417 12.3892C4.96415 12.2042 4.45536 12.343 4.27034 12.713C4.03908 13.083 4.17784 13.5918 4.59412 13.7768L9.26572 16.3208C9.40448 16.367 9.49699 16.4133 9.63575 16.4133C9.91327 16.4133 10.1908 16.2745 10.3296 15.997C10.5146 15.627 10.3758 15.1182 10.0058 14.9332Z" fill="#C3A463"/>
<path d="M45.7598 12.713C45.5748 12.343 45.066 12.2042 44.696 12.3892L39.9781 14.9332C39.6081 15.1182 39.4693 15.627 39.6543 15.997C39.7931 16.2745 40.0706 16.4133 40.3481 16.4133C40.4869 16.4133 40.6257 16.367 40.7182 16.3208L45.436 13.7768C45.8061 13.5918 45.9448 13.083 45.7598 12.713Z" fill="#C3A463"/>
</g>
<defs>
<clipPath id="clip0">
<rect width="50" height="50" fill="white" transform="translate(0 0.363281)"/>
</clipPath>
</defs>
</svg>
