<svg width="50" height="51" viewBox="0 0 50 51" fill="none" xmlns="http://www.w3.org/2000/svg">
<path d="M42.7732 41.6068L42.7727 41.6066L42.7723 41.6065L41.6854 41.3127L41.7306 42.4356L41.7306 42.4358L41.7306 42.4361L41.7306 42.437L41.7307 42.4381L41.7308 42.4477C41.7309 42.4607 41.731 42.4836 41.7303 42.5155C41.7289 42.5793 41.7245 42.6786 41.7122 42.8061C41.6874 43.0618 41.6311 43.4256 41.505 43.8415C41.2535 44.6711 40.7307 45.6916 39.6337 46.5004C38.9728 46.9876 37.7963 47.1279 36.1595 46.8768C34.571 46.6331 32.7554 46.0539 31.0171 45.3727C29.2859 44.6942 27.6657 43.9282 26.4758 43.3302C25.8817 43.0317 25.3969 42.776 25.0614 42.5954C24.8937 42.5051 24.7634 42.4337 24.6757 42.3851C24.6318 42.3609 24.5985 42.3423 24.5765 42.33L24.552 42.3162L24.5463 42.313L24.545 42.3123L24.5449 42.3122L24.5448 42.3122L22.469 41.1363L23.3657 43.3342C23.3661 43.3352 23.3665 43.3364 23.367 43.3378C23.3707 43.3493 23.3782 43.3739 23.3868 43.4102C23.404 43.4831 23.4249 43.6006 23.4287 43.7522C23.4362 44.0496 23.379 44.4925 23.0755 45.0091C22.4653 46.0477 20.7405 47.5681 15.9658 48.6129C11.2622 49.6422 8.69794 49.1473 7.34486 48.1531C6.03084 47.1876 5.60966 45.5558 5.71715 43.5942C5.82394 41.6453 6.44604 39.5876 6.96157 38.0657C7.04644 37.8152 7.13096 37.5722 7.2099 37.3452C7.35961 36.9148 7.48922 36.5421 7.56297 36.2856C7.59261 36.1825 7.62138 36.0713 7.63924 35.966C7.6482 35.9132 7.65729 35.8455 7.65923 35.7712C7.66091 35.7069 7.65951 35.5803 7.61194 35.4368C7.56068 35.2822 7.42573 35.0314 7.11959 34.9059C6.83876 34.7907 6.59245 34.8569 6.4831 34.8971C6.36009 34.9423 6.2573 35.0109 6.18272 35.0699C6.12432 35.0588 6.03076 35.0324 5.89852 34.9748C5.52906 34.8139 5.03238 34.4869 4.47603 34.0076C3.36802 33.053 2.18165 31.6325 1.46982 30.1907C0.737647 28.7078 0.62494 27.4639 1.17056 26.6263C1.72196 25.7797 3.19573 24.9545 6.64259 24.9545C6.8643 24.9545 7.2971 24.9023 7.56987 24.5023C7.8206 24.1346 7.74604 23.738 7.69964 23.5606C7.59986 23.1794 7.32892 22.7273 7.06026 22.3081C6.84794 21.9767 6.60447 21.6174 6.33796 21.224C5.84306 20.4936 5.26873 19.6459 4.66691 18.6426C2.84042 15.5976 1.09658 11.6262 1.89443 7.48512C2.26572 5.55799 3.72669 3.93054 5.86581 2.77124C7.99794 1.61573 10.7059 0.985653 13.3383 1.01554C15.9776 1.0455 18.4455 1.73625 20.1635 3.11234C21.8421 4.45689 22.8835 6.51446 22.6171 9.51014C22.4994 10.8336 22.406 11.7339 22.3475 12.297C22.3344 12.424 22.323 12.5338 22.3135 12.6275C22.3007 12.7534 22.2906 12.8574 22.2845 12.935C22.2815 12.973 22.2787 13.0143 22.2775 13.053C22.2769 13.0721 22.2764 13.0993 22.2773 13.1297L22.2773 13.1305C22.2779 13.15 22.2801 13.2201 22.2993 13.3037C22.3073 13.3386 22.3337 13.4491 22.4109 13.5694C22.492 13.6957 22.7291 13.9682 23.145 13.9502C23.4792 13.9358 23.6733 13.7329 23.7155 13.6878C23.7811 13.6178 23.8196 13.5521 23.8347 13.5252C23.8846 13.4368 23.912 13.3476 23.917 13.3316C23.9172 13.3307 23.9174 13.3301 23.9176 13.3296C23.9372 13.2674 23.959 13.1843 23.9792 13.1056C23.9922 13.0551 24.0069 12.997 24.0234 12.9318C24.2251 12.1359 24.6937 10.2863 25.5643 8.24884C26.5135 6.02754 27.8973 3.68971 29.8336 2.24959C31.7093 0.854513 34.1709 0.247155 37.4996 1.58244C41.0123 2.99147 42.7868 4.90022 43.554 6.89917C44.3303 8.92206 44.1339 11.1896 43.3962 13.4098C42.6597 15.6263 41.4076 17.7189 40.1904 19.3225C39.5833 20.1222 38.9938 20.7886 38.495 21.2787C37.9688 21.7958 37.616 22.0438 37.4792 22.103C37.116 22.2601 36.7933 22.4421 36.5392 22.6634C36.282 22.8873 36.0571 23.1863 35.9807 23.5703C35.8244 24.3568 36.3638 24.9562 36.7693 25.3043C37.227 25.6973 37.8655 26.0724 38.5618 26.4297C39.2687 26.7925 40.0881 27.1631 40.9369 27.5371C41.2168 27.6604 41.4998 27.7841 41.7838 27.9082C43.2445 28.5466 44.7334 29.1972 45.9715 29.8745C46.7088 30.2778 47.3208 30.6716 47.7661 31.053C48.2253 31.4464 48.4215 31.7543 48.4762 31.9653C49.3262 35.2436 49.3082 37.4203 48.8982 38.8481C48.4998 40.2357 47.7197 40.9625 46.8711 41.3584C45.9868 41.771 44.9748 41.8459 44.1415 41.8007C43.7318 41.7785 43.3819 41.7281 43.1366 41.6837C43.0143 41.6616 42.919 41.6412 42.8565 41.6269C42.8253 41.6197 42.8023 41.6141 42.7883 41.6106L42.7741 41.607L42.774 41.607L42.7732 41.6068ZM7.22598 36.3556C7.22587 36.356 7.22158 36.3599 7.21339 36.3662C7.22199 36.3583 7.22609 36.3552 7.22598 36.3556ZM22.3385 12.8313C22.3384 12.8318 22.3389 12.8301 22.3389 12.8302L22.3388 12.8305C22.3385 12.8315 22.3387 12.8307 22.3385 12.8313Z" stroke="#C3A463" stroke-width="1.6558"/>
</svg>
