<svg width="50" height="51" viewBox="0 0 50 51" fill="none" xmlns="http://www.w3.org/2000/svg">
<g clip-path="url(#clip0)">
<path d="M47.2351 25.3766H43.0317V14.0063C43.0317 12.4933 41.8022 11.2625 40.2911 11.2625H33.9658V8.53654C33.9658 7.06973 32.7738 5.87646 31.3088 5.87646H2.65703C1.19199 5.87646 0 7.06973 0 8.53654V9.70947C0 10.1145 0.32793 10.4427 0.732422 10.4427C1.13691 10.4427 1.46484 10.1145 1.46484 9.70947V8.53654C1.46484 7.87846 1.99971 7.34299 2.65703 7.34299H31.3087C31.966 7.34299 32.5009 7.87846 32.5009 8.53654V31.6307H1.46484V13.1475C1.46484 12.7424 1.13691 12.4142 0.732422 12.4142C0.32793 12.4142 0 12.7424 0 13.1475V38.0031C0 39.4699 1.19199 40.6632 2.65703 40.6632H4.34023C4.7085 42.6733 6.47119 44.2013 8.58379 44.2013C10.6964 44.2013 12.4591 42.6733 12.8273 40.6632H24.4784C24.8829 40.6632 25.2108 40.335 25.2108 39.9299C25.2108 39.5249 24.8829 39.1966 24.4784 39.1966H12.8437C12.5146 37.1396 10.7297 35.5629 8.58369 35.5629C6.4377 35.5629 4.65283 37.1397 4.32383 39.1967H2.65703C1.99971 39.1967 1.46484 38.6613 1.46484 38.0032V33.0972H32.5009V39.1967H27.8379C27.4334 39.1967 27.1055 39.525 27.1055 39.93C27.1055 40.3351 27.4334 40.6633 27.8379 40.6633H37.3365C37.7048 42.6734 39.4675 44.2014 41.58 44.2014C43.6925 44.2014 45.4553 42.6734 45.8235 40.6633H47.2593C48.7705 40.6633 49.9999 39.4324 49.9999 37.9195V28.1448C50 26.6184 48.7597 25.3766 47.2351 25.3766ZM8.58369 37.0295C10.1549 37.0295 11.4331 38.3092 11.4331 39.8822C11.4331 41.4552 10.1549 42.735 8.58369 42.735C7.0125 42.735 5.73428 41.4552 5.73428 39.8822C5.73428 38.3092 7.0126 37.0295 8.58369 37.0295ZM41.5801 42.7349C40.0089 42.7349 38.7307 41.4551 38.7307 39.8821C38.7307 38.3091 40.0089 37.0294 41.5801 37.0294C43.1513 37.0294 44.4295 38.3091 44.4295 39.8821C44.4295 41.4551 43.1513 42.7349 41.5801 42.7349ZM48.5352 32.1205H46.586C46.1822 32.1205 45.8536 31.7916 45.8536 31.3872C45.8536 30.9828 46.1821 30.654 46.586 30.654H48.5352V32.1205ZM48.5352 29.1874H46.586C45.3745 29.1874 44.3888 30.1743 44.3888 31.3872C44.3888 32.6001 45.3744 33.587 46.586 33.587H48.5352V37.9194C48.5352 38.6237 47.9628 39.1966 47.2594 39.1966H45.84C45.511 37.1396 43.7261 35.5629 41.5801 35.5629C39.4341 35.5629 37.6492 37.1396 37.3202 39.1966H33.9657V12.729H40.291C40.9945 12.729 41.5668 13.302 41.5668 14.0063V14.1771H36.6632C36.2587 14.1771 35.9308 14.5053 35.9308 14.9103V26.1099C35.9308 26.5149 36.2587 26.8431 36.6632 26.8431H47.235C47.9519 26.8431 48.5351 27.4271 48.5351 28.1447V29.1874H48.5352ZM41.5669 15.6436V25.3766H37.3957V15.6436H41.5669Z" fill="#C3A463"/>
<path d="M38.3564 29.1875H36.6631C36.2586 29.1875 35.9307 29.5157 35.9307 29.9208C35.9307 30.3258 36.2586 30.654 36.6631 30.654H38.3564C38.7609 30.654 39.0889 30.3258 39.0889 29.9208C39.0889 29.5157 38.7609 29.1875 38.3564 29.1875Z" fill="#C3A463"/>
<path d="M21.2788 17.8474C21.6833 17.8474 22.0112 17.5192 22.0112 17.1141C22.0112 16.7091 21.6833 16.3809 21.2788 16.3809H18.3508C17.9463 16.3809 17.6184 16.7091 17.6184 17.1141V22.9785C17.6184 23.3836 17.9463 23.7118 18.3508 23.7118H21.2788C21.6833 23.7118 22.0112 23.3836 22.0112 22.9785C22.0112 22.5735 21.6833 22.2453 21.2788 22.2453H19.0833V20.7796H21.2788C21.6833 20.7796 22.0112 20.4514 22.0112 20.0464C22.0112 19.6413 21.6833 19.3131 21.2788 19.3131H19.0833V17.8474H21.2788Z" fill="#C3A463"/>
<path d="M27.0388 17.8474C27.4433 17.8474 27.7712 17.5192 27.7712 17.1141C27.7712 16.7091 27.4433 16.3809 27.0388 16.3809H24.1108C23.7063 16.3809 23.3784 16.7091 23.3784 17.1141V22.9785C23.3784 23.3836 23.7063 23.7118 24.1108 23.7118H27.0388C27.4433 23.7118 27.7712 23.3836 27.7712 22.9785C27.7712 22.5735 27.4433 22.2453 27.0388 22.2453H24.8433V20.7796H27.0388C27.4433 20.7796 27.7712 20.4514 27.7712 20.0464C27.7712 19.6413 27.4433 19.3131 27.0388 19.3131H24.8433V17.8474H27.0388Z" fill="#C3A463"/>
<path d="M9.85469 17.8474C10.2592 17.8474 10.5871 17.5192 10.5871 17.1141C10.5871 16.7091 10.2592 16.3809 9.85469 16.3809H6.92676C6.52227 16.3809 6.19434 16.7091 6.19434 17.1141V22.9785C6.19434 23.3836 6.52227 23.7118 6.92676 23.7118C7.33125 23.7118 7.65918 23.3836 7.65918 22.9785V20.7796H9.85469C10.2592 20.7796 10.5871 20.4514 10.5871 20.0464C10.5871 19.6413 10.2592 19.3131 9.85469 19.3131H7.65918V17.8474H9.85469Z" fill="#C3A463"/>
<path d="M16.2512 20.0464V17.1141C16.2512 16.7091 15.9232 16.3809 15.5188 16.3809H12.5908C12.1863 16.3809 11.8584 16.7091 11.8584 17.1141V22.9785C11.8584 23.3836 12.1863 23.7118 12.5908 23.7118C12.9953 23.7118 13.3232 23.3836 13.3232 22.9785V21.0041L14.9094 23.3854C15.0505 23.5973 15.2827 23.7119 15.5194 23.7119C15.6591 23.7119 15.8002 23.672 15.9251 23.5886C16.2616 23.3639 16.3525 22.9086 16.1281 22.5717L14.9344 20.7796H15.5188C15.9232 20.7796 16.2512 20.4513 16.2512 20.0464ZM14.7863 19.3131H13.3232V17.8474H14.7863V19.3131Z" fill="#C3A463"/>
</g>
<defs>
<clipPath id="clip0">
<rect width="50" height="50.0573" fill="white" transform="translate(0 0.0102539)"/>
</clipPath>
</defs>
</svg>
