<svg width="415" height="415" viewBox="0 0 415 415" fill="none" xmlns="http://www.w3.org/2000/svg">
<g clip-path="url(#clip0)">
<path d="M280.848 176.119C275.863 169.662 269.915 164.009 263.211 159.36C261.203 162.886 259.173 166.426 257.099 170.006C263.8 174.79 269.948 180.307 275.426 186.451C277.283 183.001 279.073 179.562 280.848 176.119Z" fill="#C3A463"/>
<path d="M228.075 165.327C223.832 162.773 219.345 160.33 214.666 157.903C212.631 161.247 210.608 164.602 208.568 167.999L208.307 168.442C212.765 170.762 217.251 173.203 221.752 175.882C226.256 178.561 230.538 181.334 234.711 184.15L234.976 183.712C237.019 180.271 238.973 176.909 240.935 173.534C236.547 170.587 232.297 167.806 228.075 165.327Z" fill="#C3A463"/>
<path d="M253.208 152.267C249.165 149.517 244.993 146.797 240.597 144.193C236.201 141.589 231.83 139.21 227.489 136.969C225.346 140.416 223.197 143.914 221.037 147.462C225.671 149.882 230.118 152.314 234.316 154.839C238.514 157.362 242.746 160.031 247.077 162.932C249.159 159.341 251.202 155.787 253.208 152.267Z" fill="#C3A463"/>
<path d="M326.659 28.3752C325.85 31.0181 324.815 34.0255 323.63 37.294C324.785 38.082 325.975 38.8692 327.081 39.6536C327.236 35.8882 327.093 32.1176 326.659 28.3752Z" fill="#C3A463"/>
<path d="M256.534 219.265C251.576 212.36 245.409 206.407 238.33 201.695C236.224 205.203 234.105 208.679 231.976 212.126C238.78 217.029 245.021 222.67 250.581 228.946C252.625 225.712 254.572 222.492 256.534 219.265Z" fill="#C3A463"/>
<path d="M234.012 126.597C238.265 128.818 242.553 131.145 246.843 133.703C251.132 136.259 255.237 138.913 259.211 141.592C261.234 137.93 263.237 134.335 265.179 130.775C261.475 128.267 257.602 125.742 253.16 123.123C248.718 120.507 244.661 118.274 240.699 116.214C238.473 119.609 236.243 123.071 234.012 126.597Z" fill="#C3A463"/>
<path d="M247.334 105.894C251.201 107.93 255.187 110.117 259.386 112.612C263.585 115.11 267.432 117.584 271.047 119.996C273.047 116.295 274.982 112.653 276.857 109.074C273.225 106.661 269.518 104.277 265.695 102.004C261.876 99.7323 258.011 97.6095 254.155 95.5733C251.906 98.9402 249.63 102.381 247.334 105.894Z" fill="#C3A463"/>
<path d="M268.104 75.2278C265.791 78.5246 263.434 81.9216 261.035 85.418C264.679 87.3709 268.34 89.3813 271.926 91.5292C275.515 93.679 279.042 95.9119 282.495 98.1849C284.42 94.4082 286.277 90.7159 288.069 87.1074C284.919 85.0426 281.667 82.9794 278.232 80.9302C274.795 78.8816 271.415 77.0017 268.104 75.2278Z" fill="#C3A463"/>
<path d="M303.875 53.5459C305.695 49.3813 307.33 45.5141 308.706 42.1057C306.917 40.9862 305.174 39.8526 303.326 38.7428C301.476 37.6337 299.645 36.6566 297.807 35.617C295.461 38.4542 292.852 41.7377 290.061 45.3254C292.262 46.5527 294.578 47.8852 297.025 49.3431C299.474 50.7978 301.721 52.1856 303.875 53.5459Z" fill="#C3A463"/>
<path d="M240.166 245.05C241.318 243.315 242.43 241.572 243.563 239.837C238.543 233.124 232.444 227.291 225.513 222.576C223.341 226.069 221.168 229.524 218.996 232.941C223.485 236.272 227.789 239.846 231.885 243.645C234.744 244.009 237.509 244.485 240.166 245.05Z" fill="#C3A463"/>
<path d="M146.937 221.082C151.248 222.612 156.067 224.624 161.173 226.997C163.057 223.462 164.999 219.88 166.993 216.25C161.816 213.847 156.485 211.787 151.037 210.083C149.457 214.452 148.081 218.176 146.937 221.082Z" fill="#C3A463"/>
<path d="M325.734 53.7979C323.64 52.2072 321.452 50.6054 319.094 48.9606C317.645 52.4793 315.991 56.3485 314.173 60.4694C317.403 62.7294 320.451 64.9951 323.312 67.2653C324.354 62.4536 325.116 58.0173 325.734 53.7979Z" fill="#C3A463"/>
<path d="M178.893 194.851C172.284 191.66 165.33 189.238 158.167 187.636C157.102 191.426 156.012 195.066 154.924 198.536C161.065 200.47 167.073 202.81 172.905 205.541C174.855 202.003 176.853 198.439 178.893 194.851Z" fill="#C3A463"/>
<path d="M221.968 205.109C224.103 201.629 226.238 198.122 228.37 194.591C224.24 191.793 219.986 189.027 215.516 186.377C211.045 183.728 206.556 181.279 202.128 178.993C200.012 182.576 197.949 186.127 195.936 189.638C200.447 191.976 204.903 194.395 209.226 196.966C213.703 199.633 217.884 202.367 221.968 205.109Z" fill="#C3A463"/>
<path d="M313.104 30.466C314.957 25.4671 316.389 20.3225 317.383 15.0847C313.251 18.4562 309.411 22.1707 305.903 26.1855C307.121 26.8904 308.312 27.5132 309.528 28.2428C310.747 28.9743 311.904 29.7376 313.104 30.466Z" fill="#C3A463"/>
<path d="M192.677 244.521C194.227 244.203 195.893 244.025 197.525 243.779C199.163 241.3 200.807 238.746 202.441 236.189C198.448 233.51 194.447 230.924 190.422 228.54C186.396 226.154 182.185 223.851 177.961 221.631C175.952 225.284 173.999 228.885 172.104 232.43C175.956 234.449 179.964 236.648 184.135 239.129C187.115 240.928 189.911 242.73 192.677 244.521Z" fill="#C3A463"/>
<path d="M215.545 215.493C211.444 212.758 207.282 210.038 202.955 207.427C198.802 204.955 194.435 202.589 189.908 200.244C187.851 203.858 185.843 207.433 183.883 210.976C188.146 213.205 192.457 215.548 196.664 218.055C200.871 220.564 204.894 223.182 208.994 225.912C211.178 222.481 213.363 219.007 215.545 215.493Z" fill="#C3A463"/>
<path d="M151.301 245.822C152.65 243.198 154.067 240.497 155.486 237.831C153.176 236.769 150.949 235.785 148.831 234.913C149.765 238.505 150.589 242.14 151.301 245.822Z" fill="#C3A463"/>
<path d="M177.409 249.369C173.653 247.144 169.992 245.133 166.407 243.243C162.163 251.317 158.206 259.072 154.598 266.357C160.712 258.928 168.543 253.099 177.409 249.369Z" fill="#C3A463"/>
<path d="M282.574 55.1669C280.123 58.4478 277.678 61.797 275.241 65.2171C278.273 66.8706 281.346 68.5974 284.483 70.4637C287.621 72.33 290.596 74.2001 293.497 76.0806C295.314 72.3233 297.091 68.5788 298.829 64.8415C296.328 63.2276 293.718 61.5851 290.813 59.8614C287.906 58.1385 285.149 56.5521 282.574 55.1669Z" fill="#C3A463"/>
<path d="M185.005 184.218C187.013 180.719 189.055 177.192 191.133 173.637C183.612 169.619 175.386 167.084 166.908 166.171C165.029 169.387 163.121 172.613 161.328 175.818C169.504 177.744 177.444 180.562 185.005 184.218Z" fill="#C3A463"/>
<path d="M198.076 161.754C199.941 158.609 201.799 155.587 203.651 152.522C196.188 148.562 188.045 146.033 179.651 145.069C177.652 148.259 175.657 151.494 173.666 154.776C181.85 156.606 189.791 159.386 197.331 163.058C197.583 162.609 197.816 162.192 198.076 161.754Z" fill="#C3A463"/>
<path d="M229.637 110.775C222.73 107.405 215.44 104.88 207.929 103.25C205.588 106.447 203.241 109.715 200.884 113.05C208.5 115.051 215.912 117.763 223.019 121.155C225.237 117.624 227.442 114.179 229.637 110.775Z" fill="#C3A463"/>
<path d="M216.482 131.568C209.186 127.874 201.362 125.331 193.289 124.022C191.154 127.193 189.013 130.425 186.866 133.72C194.873 135.637 202.65 138.418 210.057 142.017C212.202 138.485 214.337 134.997 216.482 131.568Z" fill="#C3A463"/>
<path d="M139.04 207.4C141.777 199.78 144.982 190.074 147.807 179.356C148.408 177.062 149.006 174.757 149.559 172.392C149.596 172.24 149.638 172.089 149.684 171.94C156.575 142.581 160.079 105.144 137.972 92.5629C144.164 108.652 147.516 138.207 128.601 188.403C132.517 194.487 136.005 200.835 139.04 207.4Z" fill="#C3A463"/>
<path d="M245.467 189.951L244.693 191.224C251.513 196.094 257.742 201.74 263.252 208.051C265.2 204.718 267.139 201.397 269.014 198.061C264.054 191.228 257.929 185.324 250.922 180.618C249.117 183.721 247.35 186.783 245.467 189.951Z" fill="#C3A463"/>
<path d="M340.636 145.174C325.436 147.685 311.308 154.608 300.008 165.079C294.006 177.619 287.194 190.652 279.778 203.822C304.456 177.356 314.592 171.791 328.582 164.198C333.562 161.499 339.197 158.442 346.235 153.921C353.407 149.449 359.934 144.018 365.641 137.782C357.835 141.772 349.357 144.279 340.636 145.174Z" fill="#C3A463"/>
<path d="M120.66 393.264C103.255 389.935 87.3867 381.082 75.4109 368.023C72.3619 373.78 74.3852 380.917 80.0043 384.217L106.362 399.899C112.206 403.362 119.747 401.446 123.226 395.614L124.457 393.544C123.944 393.505 123.327 393.479 122.848 393.445L120.66 393.264Z" fill="#C3A463"/>
<path d="M243.741 258.379C242.913 258.119 242.263 257.966 241.612 257.806C235.913 256.354 230.096 255.429 224.227 255.045C195.933 252.971 175.503 259.539 163.51 274.569C160.421 278.445 155.26 280.007 150.541 278.494C145.71 277.045 142.279 272.756 141.924 267.724C140.934 253.482 138.074 239.43 133.42 225.931C129.362 214.102 123.773 202.853 116.797 192.473C116.258 191.666 115.701 190.863 115.146 190.097L113.832 188.238C112.957 187.051 111.924 185.683 110.902 184.393C109.78 182.953 108.713 181.624 107.59 180.273C107.225 179.833 106.858 179.396 106.488 178.966C111.493 200.294 111.635 234.91 84.838 279.963C67.4362 309.219 65.6536 334.055 79.556 353.776C89.7886 367.62 104.671 377.307 121.469 381.062L123.78 381.23C127.427 381.576 131.095 381.696 134.759 381.589C157.195 380.669 176.37 366.23 193.481 337.457C209.241 310.953 226.616 296.541 245.127 294.638C261.35 292.967 277.626 300.863 293.525 318.234C290.066 296.339 278.603 268.25 243.741 258.379ZM168.201 343.818C162.675 353.592 153.385 360.676 142.498 363.421C133.663 365.606 124.392 365.255 115.748 362.41C112.628 361.247 111.015 357.798 112.122 354.66C113.229 351.519 116.649 349.848 119.808 350.899C120.81 351.274 144.845 359.203 157.71 337.586C159.457 334.753 163.154 333.846 166.018 335.545C168.88 337.245 169.852 340.926 168.201 343.818ZM180.759 322.774C179.49 324.907 177.062 326.067 174.607 325.711C172.152 325.356 170.153 323.555 169.541 321.149C168.931 318.746 169.828 316.21 171.816 314.725C173.803 313.241 176.49 313.099 178.623 314.368C181.533 316.101 182.489 319.864 180.759 322.774Z" fill="#C3A463"/>
<path d="M271.59 49.4828C267.058 47.2848 262.733 45.4351 258.693 43.9055C255.656 46.8295 252.563 49.9156 249.409 53.1923C253.999 54.8968 258.973 57.0577 264.25 59.559C266.688 56.1522 269.135 52.7916 271.59 49.4828Z" fill="#C3A463"/>
<path d="M312.04 105.594C307.693 101.468 303.075 97.6375 298.214 94.1265C296.425 97.7262 294.565 101.408 292.635 105.173C297.873 108.975 302.877 113.09 307.615 117.499C309.198 113.413 310.664 109.465 312.04 105.594Z" fill="#C3A463"/>
<path d="M320.048 80.3733C316.814 77.5574 313.106 74.6631 309.041 71.7543C307.297 75.5094 305.508 79.2678 303.676 83.0289C308.442 86.4644 312.674 89.7905 316.275 92.9623C317.67 88.5913 318.932 84.4099 320.048 80.3733Z" fill="#C3A463"/>
<path d="M301.694 12.8909C297.969 14.3269 294.379 16.0811 290.961 18.1388C292.249 18.7745 293.59 19.4859 294.908 20.1652C297.358 17.4389 299.652 14.9674 301.694 12.8909Z" fill="#C3A463"/>
<path d="M302.655 129.817C297.814 124.829 292.555 120.265 286.93 116.182C285.043 119.758 283.106 123.4 281.123 127.103C287.012 131.372 292.565 136.093 297.725 141.22C299.437 137.355 301.095 133.546 302.655 129.817Z" fill="#C3A463"/>
<path d="M243.132 90.1066C236.844 87.0982 230.299 84.6555 223.577 82.8067C221.025 85.9761 218.464 89.2309 215.902 92.5724C222.913 94.6598 229.753 97.2885 236.356 100.435C238.632 96.9187 240.891 93.4766 243.132 90.1066Z" fill="#C3A463"/>
<path d="M286.823 29.7555C284.189 28.4609 281.655 27.2158 279.194 26.1463C275.801 28.7087 272.27 31.5966 268.63 34.7625C272 36.1985 275.473 37.8049 279.048 39.5841C281.803 36.0244 284.414 32.7163 286.823 29.7555Z" fill="#C3A463"/>
<path d="M289.562 158.667C289.626 158.538 289.732 158.36 289.816 158.204L289.864 158.117C290.649 156.494 291.333 154.953 292.086 153.352C287.084 147.547 281.398 142.366 275.155 137.92C273.213 141.481 271.237 145.055 269.21 148.694C275.552 153.305 281.449 158.501 286.819 164.217C287.762 162.31 288.717 160.488 289.562 158.667Z" fill="#C3A463"/>
<path d="M257.09 69.6699C251.664 67.0882 246.079 64.8537 240.365 62.9828C237.619 66.0479 234.841 69.2372 232.029 72.5505C238.18 74.6089 244.196 77.0434 250.046 79.8429C252.443 76.3687 254.791 72.9793 257.09 69.6699Z" fill="#C3A463"/>
</g>
<defs>
<clipPath id="clip0">
<rect width="341.138" height="341.138" fill="white" transform="translate(0 84.0054) rotate(-14.2557)"/>
</clipPath>
</defs>
</svg>
