<svg width="1440" height="320" viewBox="0 0 1440 320" fill="none" xmlns="http://www.w3.org/2000/svg">
<path opacity="0.25" d="M24.2669 215.397L24.267 215.397L24.2675 215.397L26.1872 215.978L26.2 213.977L26.2001 213.975L26.2001 213.974C26.2002 213.969 26.2005 213.958 26.2012 213.941C26.2025 213.907 26.2053 213.849 26.2112 213.77C26.2229 213.611 26.2468 213.369 26.295 213.06C26.3918 212.44 26.585 211.563 26.9692 210.568C27.7336 208.589 29.2509 206.143 32.3052 204.288C34.3062 203.073 37.609 202.942 41.8335 203.756C45.9702 204.553 50.63 206.182 55.0421 208.027C59.4431 209.867 63.5417 211.9 66.5439 213.475C68.0437 214.262 69.2666 214.933 70.1132 215.406C70.5364 215.643 70.8653 215.83 71.0875 215.957C71.1986 216.021 71.2829 216.07 71.3391 216.102L71.4019 216.139L71.417 216.148L71.4204 216.15L71.4211 216.15L75.1201 218.32L73.5864 214.334C73.5848 214.329 73.5821 214.321 73.5786 214.309C73.5676 214.273 73.5486 214.203 73.5287 214.106C73.4888 213.911 73.4464 213.606 73.4551 213.221C73.4724 212.465 73.6865 211.357 74.5811 210.1C76.3944 207.552 81.2188 204.12 93.7329 202.248C106.026 200.409 112.839 201.88 116.441 204.587C119.928 207.207 120.791 211.31 120.28 215.955C119.768 220.603 117.906 225.432 116.396 228.973C116.143 229.566 115.895 230.136 115.663 230.665C115.231 231.656 114.86 232.504 114.643 233.093C114.557 233.328 114.475 233.573 114.421 233.801C114.394 233.916 114.366 234.058 114.354 234.213C114.343 234.349 114.334 234.604 114.422 234.892C114.521 235.217 114.774 235.661 115.308 235.893C115.781 236.099 116.207 236.018 116.411 235.96C116.755 235.863 117.04 235.666 117.208 235.538C117.235 235.535 117.281 235.533 117.354 235.54C117.59 235.561 117.961 235.658 118.472 235.893C119.49 236.362 120.784 237.245 122.18 238.471C124.968 240.918 127.896 244.487 129.585 248.052C131.312 251.696 131.523 254.807 129.886 256.89C128.186 259.052 123.985 260.819 115.03 260.37C114.574 260.347 113.737 260.396 113.159 261.099C112.589 261.793 112.698 262.61 112.792 263.016C112.988 263.863 113.593 264.912 114.239 265.946C114.734 266.739 115.313 267.613 115.949 268.574C117.141 270.375 118.536 272.483 119.97 274.943C124.327 282.42 128.398 292.145 125.82 301.968C124.598 306.626 120.515 310.395 114.745 312.919C109.005 315.429 101.835 316.589 94.9474 316.171C88.044 315.753 81.6049 313.763 77.2045 310.167C72.8847 306.637 70.4259 301.488 71.4803 294.343C71.9407 291.223 72.2885 289.101 72.5057 287.776C72.5546 287.477 72.597 287.219 72.6324 286.999C72.6802 286.703 72.718 286.461 72.7423 286.282C72.7542 286.195 72.7656 286.103 72.7727 286.019L72.7729 286.017C72.7755 285.993 72.8 285.757 72.7513 285.51C72.7371 285.438 72.6923 285.226 72.5481 284.995C72.3857 284.736 71.9786 284.296 71.288 284.289C70.7259 284.283 70.3684 284.583 70.2708 284.67C70.1388 284.787 70.057 284.902 70.0225 284.952C69.9111 285.114 69.8438 285.285 69.8283 285.324L69.8262 285.33C69.7727 285.464 69.7098 285.648 69.6478 285.833C69.6084 285.951 69.5637 286.087 69.5135 286.239C68.8998 288.097 67.4663 292.44 64.969 297.179C62.2546 302.329 58.3688 307.778 53.085 311.017C47.8963 314.197 41.215 315.339 32.5736 311.648C23.5567 307.798 19.0922 302.941 17.3072 297.976C15.5116 292.982 16.3107 287.556 18.4919 282.351C20.6711 277.15 24.1718 272.318 27.5215 268.65C29.1925 266.82 30.8071 265.301 32.1724 264.186C33.5872 263.03 34.6003 262.421 35.0871 262.255C36.001 261.944 36.7853 261.581 37.3971 261.14C38.0097 260.697 38.5519 260.099 38.7671 259.3C38.9891 258.475 38.792 257.705 38.4517 257.082C38.1232 256.482 37.6281 255.948 37.0907 255.478C36.015 254.538 34.4712 253.596 32.7337 252.667C30.9766 251.727 28.9279 250.751 26.7892 249.757C26.0884 249.431 25.378 249.103 24.6638 248.774C20.9811 247.074 17.1933 245.327 14.059 243.548C12.1907 242.487 10.6201 241.451 9.47444 240.451C8.29555 239.422 7.74709 238.587 7.6052 237.966C5.79985 230.064 6.09383 224.847 7.34833 221.439C8.57564 218.105 10.7711 216.365 13.1861 215.469C15.6632 214.55 18.4139 214.51 20.6169 214.731C21.7059 214.84 22.6315 215.01 23.2813 215.152C23.6055 215.223 23.8593 215.286 24.0285 215.331C24.0488 215.336 24.0679 215.341 24.0857 215.346C24.1421 215.361 24.1859 215.373 24.2164 215.382L24.2591 215.394L24.2657 215.396L24.2669 215.397ZM117.18 235.542C117.18 235.542 117.182 235.542 117.186 235.541C117.182 235.542 117.18 235.542 117.18 235.542ZM115.353 233.177C115.353 233.176 115.358 233.173 115.369 233.166C115.358 233.174 115.353 233.177 115.353 233.177ZM72.6115 286.444C72.6215 286.419 72.6205 286.425 72.6092 286.45C72.61 286.448 72.6108 286.446 72.6115 286.444ZM69.7835 285.765C69.7833 285.767 69.783 285.771 69.7824 285.777C69.7838 285.739 69.7865 285.73 69.7835 285.765Z" fill="white" stroke="#C3A463" stroke-width="3"/>
<path opacity="0.25" d="M1250.75 20.3967L1250.75 20.3968L1250.75 20.3969L1252.67 20.9778L1252.69 18.9771L1252.69 18.9749L1252.69 18.9743C1252.69 18.9693 1252.69 18.9581 1252.69 18.941C1252.69 18.9067 1252.69 18.8489 1252.7 18.7698C1252.71 18.6114 1252.73 18.3687 1252.78 18.0596C1252.88 17.4401 1253.07 16.5632 1253.46 15.5684C1254.22 13.5893 1255.74 11.1431 1258.79 9.28807C1260.79 8.07287 1264.1 7.94254 1268.32 8.75639C1272.46 9.55333 1277.12 11.1816 1281.53 13.0269C1285.93 14.8675 1290.03 16.9 1293.03 18.475C1294.53 19.2618 1295.75 19.9328 1296.6 20.4061C1297.02 20.6428 1297.35 20.8299 1297.57 20.9574C1297.69 21.0211 1297.77 21.0699 1297.83 21.1025L1297.89 21.139L1297.9 21.1478L1297.91 21.1498L1297.91 21.1502L1301.61 23.3198L1300.07 19.3345C1300.07 19.3295 1300.07 19.3212 1300.07 19.3095C1300.05 19.2726 1300.04 19.2035 1300.02 19.1061C1299.98 18.9107 1299.93 18.6062 1299.94 18.221C1299.96 17.4655 1300.17 16.3566 1301.07 15.0996C1302.88 12.5517 1307.71 9.12041 1320.22 7.24819C1332.51 5.4091 1339.33 6.88021 1342.93 9.58676C1346.41 12.2075 1347.28 16.3097 1346.77 20.9551C1346.25 25.6035 1344.39 30.4319 1342.88 33.9729C1342.63 34.5658 1342.38 35.1357 1342.15 35.6649C1341.72 36.6561 1341.35 37.5044 1341.13 38.0929C1341.04 38.3281 1340.96 38.5731 1340.91 38.8015C1340.88 38.916 1340.85 39.0582 1340.84 39.2129C1340.83 39.3491 1340.82 39.604 1340.91 39.8922C1341.01 40.217 1341.26 40.6606 1341.79 40.8931C1342.27 41.0992 1342.69 41.0179 1342.9 40.9605C1343.24 40.863 1343.53 40.6656 1343.69 40.5377C1343.72 40.5351 1343.77 40.5335 1343.84 40.5401C1344.08 40.5611 1344.45 40.6583 1344.96 40.8935C1345.98 41.3618 1347.27 42.2455 1348.67 43.4707C1351.46 45.9177 1354.38 49.4868 1356.07 53.0518C1357.8 56.6965 1358.01 59.8075 1356.37 61.8896C1354.67 64.0519 1350.47 65.8191 1341.52 65.3698C1341.06 65.3469 1340.22 65.3966 1339.65 66.0988C1339.08 66.7932 1339.19 67.6105 1339.28 68.0161C1339.47 68.8626 1340.08 69.9119 1340.73 70.946C1341.22 71.7395 1341.8 72.6132 1342.44 73.5742C1343.63 75.3754 1345.02 77.4831 1346.46 79.9433C1350.81 87.4198 1354.88 97.1451 1352.31 106.969C1351.08 111.626 1347 115.395 1341.23 117.919C1335.49 120.43 1328.32 121.589 1321.43 121.171C1314.53 120.753 1308.09 118.763 1303.69 115.167C1299.37 111.637 1296.91 106.488 1297.97 99.3434C1298.43 96.2231 1298.78 94.1013 1298.99 92.7761C1299.04 92.4775 1299.08 92.2193 1299.12 91.9993C1299.17 91.7029 1299.2 91.4613 1299.23 91.2826C1299.24 91.1948 1299.25 91.1033 1299.26 91.0195L1299.26 91.0175C1299.26 90.9929 1299.29 90.7575 1299.24 90.5102C1299.22 90.4378 1299.18 90.2258 1299.03 89.9954C1298.87 89.7361 1298.47 89.2958 1297.77 89.2886C1297.21 89.2828 1296.86 89.5831 1296.76 89.6698C1296.63 89.787 1296.54 89.9016 1296.51 89.9519C1296.4 90.1145 1296.33 90.2854 1296.32 90.3245L1296.31 90.3298C1296.26 90.4637 1296.2 90.648 1296.13 90.8335C1296.1 90.9512 1296.05 91.0867 1296 91.2388C1295.39 93.0975 1293.95 97.44 1291.46 102.179C1288.74 107.329 1284.86 112.778 1279.57 116.017C1274.38 119.197 1267.7 120.339 1259.06 116.648C1250.04 112.798 1245.58 107.941 1243.79 102.977C1242 97.9821 1242.8 92.5563 1244.98 87.3507C1247.16 82.1498 1250.66 77.318 1254.01 73.6499C1255.68 71.8201 1257.29 70.3006 1258.66 69.1857C1260.07 68.0303 1261.09 67.4212 1261.57 67.2553C1262.49 66.9437 1263.27 66.5813 1263.88 66.1397C1264.5 65.6975 1265.04 65.0991 1265.25 64.2997C1265.48 63.475 1265.28 62.705 1264.94 62.0824C1264.61 61.4816 1264.11 60.9484 1263.58 60.4784C1262.5 59.5376 1260.96 58.5963 1259.22 57.667C1257.46 56.7272 1255.41 55.7513 1253.28 54.757C1252.58 54.4312 1251.86 54.1034 1251.15 53.7738C1247.47 52.0746 1243.68 50.3268 1240.55 48.5476C1238.68 47.487 1237.11 46.4508 1235.96 45.4511C1234.78 44.4224 1234.23 43.5866 1234.09 42.9656C1232.29 35.0641 1232.58 29.8474 1233.84 26.4392C1235.06 23.1048 1237.26 21.3653 1239.67 20.4692C1242.15 19.5501 1244.9 19.5098 1247.1 19.7309C1248.19 19.8402 1249.12 20.0102 1249.77 20.1521C1250.09 20.2229 1250.35 20.2863 1250.52 20.3309C1250.54 20.3362 1250.55 20.3413 1250.57 20.3461C1250.63 20.3613 1250.67 20.3735 1250.7 20.3821L1250.75 20.3944L1250.75 20.3964L1250.75 20.3967ZM1343.67 40.5423C1343.67 40.5423 1343.67 40.5416 1343.67 40.5408C1343.67 40.542 1343.67 40.5424 1343.67 40.5423ZM1341.84 38.1767C1341.84 38.1764 1341.85 38.1726 1341.86 38.1665C1341.84 38.1741 1341.84 38.1771 1341.84 38.1767ZM1299.1 91.4444C1299.11 91.4194 1299.11 91.425 1299.1 91.4501C1299.1 91.4481 1299.1 91.4461 1299.1 91.4444ZM1296.27 90.765C1296.27 90.7673 1296.27 90.7711 1296.27 90.7767C1296.27 90.7393 1296.27 90.7306 1296.27 90.765Z" stroke="#C3A463" stroke-width="3"/>
<path opacity="0.25" d="M1333.71 179.578L1333.71 179.578L1333.71 179.578L1335.63 180.159L1335.64 178.158L1335.64 178.156C1335.64 178.154 1335.64 178.151 1335.64 178.147C1335.64 178.142 1335.64 178.134 1335.64 178.125C1335.64 178.093 1335.65 178.039 1335.65 177.964C1335.66 177.814 1335.69 177.583 1335.73 177.289C1335.82 176.7 1336.01 175.866 1336.37 174.919C1337.1 173.036 1338.54 170.708 1341.45 168.942C1343.34 167.793 1346.48 167.664 1350.52 168.442C1354.47 169.203 1358.93 170.759 1363.15 172.524C1367.36 174.284 1371.28 176.228 1374.15 177.734C1375.58 178.487 1376.75 179.128 1377.56 179.581C1377.97 179.807 1378.28 179.986 1378.49 180.108C1378.6 180.169 1378.68 180.216 1378.73 180.247L1378.79 180.282L1378.81 180.29L1378.81 180.292L1378.81 180.292L1382.51 182.462L1380.98 178.478C1380.98 178.473 1380.97 178.466 1380.97 178.457C1380.96 178.423 1380.94 178.359 1380.92 178.268C1380.89 178.085 1380.85 177.798 1380.85 177.435C1380.87 176.724 1381.07 175.676 1381.92 174.485C1383.64 172.069 1388.23 168.79 1400.2 166.999C1411.96 165.24 1418.46 166.651 1421.88 169.224C1425.19 171.712 1426.02 175.608 1425.53 180.043C1425.04 184.48 1423.26 189.092 1421.82 192.48C1421.58 193.045 1421.34 193.589 1421.12 194.095C1420.7 195.045 1420.35 195.86 1420.14 196.425C1420.05 196.651 1419.98 196.888 1419.92 197.11C1419.9 197.222 1419.87 197.361 1419.86 197.514C1419.85 197.648 1419.84 197.901 1419.93 198.188C1420.02 198.511 1420.28 198.954 1420.81 199.186C1421.28 199.391 1421.71 199.31 1421.91 199.253C1422.24 199.16 1422.51 198.974 1422.68 198.85C1422.7 198.849 1422.74 198.849 1422.79 198.853C1423 198.872 1423.35 198.962 1423.84 199.186C1424.8 199.63 1426.03 200.471 1427.37 201.641C1430.03 203.978 1432.83 207.386 1434.44 210.788C1436.09 214.269 1436.27 217.214 1434.73 219.176C1433.13 221.218 1429.14 222.911 1420.57 222.481C1420.13 222.459 1419.3 222.506 1418.73 223.202C1418.16 223.891 1418.27 224.699 1418.36 225.092C1418.55 225.915 1419.14 226.928 1419.76 227.915C1420.23 228.677 1420.79 229.514 1421.4 230.434C1422.54 232.157 1423.87 234.169 1425.24 236.522C1429.41 243.673 1433.29 252.958 1430.83 262.331C1429.67 266.76 1425.78 270.354 1420.27 272.765C1414.79 275.163 1407.94 276.271 1401.36 275.872C1394.76 275.472 1388.61 273.57 1384.42 270.141C1380.3 266.778 1377.96 261.875 1378.96 255.061C1379.41 252.076 1379.74 250.046 1379.95 248.778C1379.99 248.493 1380.03 248.246 1380.07 248.035C1380.11 247.751 1380.15 247.52 1380.17 247.348C1380.18 247.263 1380.19 247.175 1380.2 247.093C1380.2 247.088 1380.23 246.844 1380.18 246.587C1380.17 246.515 1380.12 246.303 1379.98 246.073C1379.81 245.814 1379.41 245.374 1378.72 245.366C1378.16 245.361 1377.8 245.661 1377.7 245.747C1377.57 245.865 1377.49 245.979 1377.45 246.029C1377.34 246.191 1377.27 246.361 1377.26 246.398L1377.26 246.403C1377.21 246.533 1377.14 246.712 1377.09 246.889C1377.05 247.001 1377.01 247.131 1376.96 247.277C1376.37 249.055 1375 253.205 1372.61 257.734C1370.02 262.658 1366.31 267.86 1361.27 270.949C1356.32 273.981 1349.95 275.072 1341.7 271.549C1333.08 267.87 1328.83 263.234 1327.13 258.506C1325.42 253.748 1326.18 248.574 1328.26 243.602C1330.34 238.635 1333.69 234.018 1336.89 230.512C1338.49 228.763 1340.03 227.311 1341.33 226.247C1342.68 225.142 1343.65 224.566 1344.1 224.411C1344.98 224.112 1345.74 223.763 1346.33 223.335C1346.92 222.907 1347.45 222.323 1347.66 221.539C1347.88 220.729 1347.69 219.975 1347.36 219.369C1347.04 218.785 1346.56 218.269 1346.04 217.817C1345 216.912 1343.52 216.008 1341.86 215.119C1340.18 214.218 1338.21 213.284 1336.17 212.333C1335.5 212.021 1334.82 211.707 1334.13 211.392C1330.61 209.766 1326.99 208.095 1323.99 206.394C1322.21 205.38 1320.71 204.391 1319.62 203.439C1318.49 202.457 1317.98 201.669 1317.85 201.095C1316.12 193.541 1316.41 188.564 1317.6 185.319C1318.77 182.149 1320.85 180.497 1323.15 179.646C1325.5 178.771 1328.13 178.732 1330.23 178.943C1331.27 179.047 1332.15 179.209 1332.77 179.345C1333.08 179.412 1333.32 179.473 1333.48 179.515C1333.56 179.536 1333.62 179.553 1333.66 179.564L1333.7 179.576L1333.71 179.577L1333.71 179.578ZM1422.64 198.854C1422.64 198.854 1422.64 198.853 1422.65 198.852C1422.64 198.853 1422.64 198.854 1422.64 198.854ZM1420.84 196.474C1420.84 196.474 1420.85 196.47 1420.86 196.463C1420.85 196.471 1420.84 196.475 1420.84 196.474ZM1380.04 247.518C1380.05 247.494 1380.05 247.5 1380.04 247.524C1380.04 247.522 1380.04 247.52 1380.04 247.518ZM1377.21 246.838C1377.21 246.84 1377.21 246.844 1377.21 246.85C1377.21 246.814 1377.22 246.805 1377.21 246.838Z" stroke="#C3A463" stroke-width="3"/>
</svg>
