<svg width="1498" height="508" viewBox="0 0 1498 508" fill="none" xmlns="http://www.w3.org/2000/svg">
<path opacity="0.25" d="M1375.75 22.3967L1375.75 22.3967L1375.75 22.3968L1377.67 22.9778L1377.69 20.977L1377.69 20.9748L1377.69 20.9742C1377.69 20.9692 1377.69 20.958 1377.69 20.9409C1377.69 20.9066 1377.69 20.8488 1377.7 20.7697C1377.71 20.6113 1377.73 20.3686 1377.78 20.0596C1377.88 19.44 1378.07 18.5632 1378.46 17.5683C1379.22 15.5892 1380.74 13.143 1383.79 11.288C1385.79 10.0728 1389.1 9.94248 1393.32 10.7563C1397.46 11.5533 1402.12 13.1816 1406.53 15.0268C1410.93 16.8674 1415.03 18.8999 1418.03 20.475C1419.53 21.2617 1420.75 21.9327 1421.6 22.4061C1422.02 22.6427 1422.35 22.8299 1422.57 22.9573C1422.69 23.0211 1422.77 23.0698 1422.83 23.1024L1422.89 23.1389L1422.9 23.1478L1422.91 23.1498L1422.91 23.1502L1426.61 25.3198L1425.07 21.3345C1425.07 21.3295 1425.07 21.3211 1425.07 21.3095C1425.05 21.2725 1425.04 21.2034 1425.02 21.106C1424.98 20.9106 1424.93 20.6061 1424.94 20.221C1424.96 19.4655 1425.17 18.3565 1426.07 17.0995C1427.88 14.5517 1432.71 11.1203 1445.22 9.24813C1457.51 7.40904 1464.33 8.88015 1467.93 11.5867C1471.41 14.2075 1472.28 18.3097 1471.77 22.9551C1471.25 27.6034 1469.39 32.4319 1467.88 35.9729C1467.63 36.5657 1467.38 37.1357 1467.15 37.6648C1466.72 38.6561 1466.35 39.5044 1466.13 40.0928C1466.04 40.328 1465.96 40.5731 1465.91 40.8014C1465.88 40.9159 1465.85 41.0582 1465.84 41.2128C1465.83 41.349 1465.82 41.6039 1465.91 41.8921C1466.01 42.217 1466.26 42.6606 1466.79 42.893C1467.27 43.0991 1467.69 43.0179 1467.9 42.9604C1468.24 42.8629 1468.53 42.6655 1468.69 42.5376C1468.72 42.535 1468.77 42.5335 1468.84 42.54C1469.08 42.561 1469.45 42.6582 1469.96 42.8935C1470.98 43.3617 1472.27 44.2454 1473.67 45.4707C1476.46 47.9176 1479.38 51.4868 1481.07 55.0517C1482.8 58.6964 1483.01 61.8075 1481.37 63.8895C1479.67 66.0518 1475.47 67.819 1466.52 67.3697C1466.06 67.3468 1465.22 67.3965 1464.65 68.0988C1464.08 68.7931 1464.19 69.6105 1464.28 70.016C1464.47 70.8625 1465.08 71.9118 1465.73 72.946C1466.22 73.7394 1466.8 74.6131 1467.44 75.5741C1468.63 77.3753 1470.02 79.4831 1471.46 81.9433C1475.81 89.4197 1479.88 99.1451 1477.31 108.968C1476.08 113.626 1472 117.395 1466.23 119.919C1460.49 122.429 1453.32 123.589 1446.43 123.171C1439.53 122.753 1433.09 120.763 1428.69 117.167C1424.37 113.637 1421.91 108.488 1422.97 101.343C1423.43 98.2231 1423.78 96.1012 1423.99 94.7761C1424.04 94.4774 1424.08 94.2193 1424.12 93.9992C1424.17 93.7028 1424.2 93.4613 1424.23 93.2825C1424.24 93.1947 1424.25 93.1032 1424.26 93.0194L1424.26 93.0174C1424.26 92.9929 1424.29 92.7574 1424.24 92.5101C1424.22 92.4377 1424.18 92.2257 1424.03 91.9954C1423.87 91.7361 1423.47 91.2958 1422.77 91.2886C1422.21 91.2828 1421.86 91.5831 1421.76 91.6697C1421.63 91.787 1421.54 91.9015 1421.51 91.9519C1421.4 92.1144 1421.33 92.2853 1421.32 92.3245L1421.31 92.3297C1421.26 92.4636 1421.2 92.6479 1421.13 92.8335C1421.1 92.9512 1421.05 93.0866 1421 93.2387C1420.39 95.0974 1418.95 99.44 1416.46 104.179C1413.74 109.329 1409.86 114.778 1404.57 118.017C1399.38 121.197 1392.7 122.339 1384.06 118.648C1375.04 114.798 1370.58 109.941 1368.79 104.976C1367 99.982 1367.8 94.5563 1369.98 89.3507C1372.16 84.1497 1375.66 79.3179 1379.01 75.6498C1380.68 73.8201 1382.29 72.3006 1383.66 71.1856C1385.07 70.0303 1386.09 69.4211 1386.57 69.2552C1387.49 68.9437 1388.27 68.5813 1388.88 68.1396C1389.5 67.6974 1390.04 67.099 1390.25 66.2997C1390.48 65.475 1390.28 64.705 1389.94 64.0823C1389.61 63.4815 1389.11 62.9484 1388.58 62.4784C1387.5 61.5376 1385.96 60.5963 1384.22 59.6669C1382.46 58.7272 1380.41 57.7512 1378.28 56.7569C1377.58 56.4311 1376.86 56.1034 1376.15 55.7738C1372.47 54.0745 1368.68 52.3268 1365.55 50.5475C1363.68 49.487 1362.11 48.4508 1360.96 47.4511C1359.78 46.4223 1359.23 45.5865 1359.09 44.9655C1357.29 37.064 1357.58 31.8473 1358.84 28.4391C1360.06 25.1047 1362.26 23.3652 1364.67 22.4691C1367.15 21.5501 1369.9 21.5098 1372.1 21.7308C1373.19 21.8401 1374.12 22.0102 1374.77 22.152C1375.09 22.2228 1375.35 22.2862 1375.52 22.3308C1375.54 22.3362 1375.55 22.3413 1375.57 22.346C1375.63 22.3612 1375.67 22.3734 1375.7 22.3821L1375.75 22.3944L1375.75 22.3963L1375.75 22.3967ZM1468.67 42.5423C1468.67 42.5422 1468.67 42.5416 1468.67 42.5407C1468.67 42.542 1468.67 42.5424 1468.67 42.5423ZM1466.84 40.1767C1466.84 40.1763 1466.85 40.1725 1466.86 40.1664C1466.84 40.174 1466.84 40.1771 1466.84 40.1767ZM1424.1 93.4443C1424.11 93.4193 1424.11 93.425 1424.1 93.45C1424.1 93.448 1424.1 93.4461 1424.1 93.4443ZM1421.27 92.7649C1421.27 92.7672 1421.27 92.7711 1421.27 92.7766C1421.27 92.7392 1421.27 92.7305 1421.27 92.7649Z" stroke="#C3A463" stroke-width="3"/>
<path opacity="0.25" d="M1272.22 206.289L1272.22 206.289L1272.22 206.289L1274.22 206.253L1273.62 204.345L1273.62 204.343L1273.62 204.342C1273.62 204.338 1273.61 204.327 1273.61 204.31C1273.6 204.277 1273.59 204.221 1273.57 204.144C1273.53 203.99 1273.48 203.752 1273.43 203.443C1273.33 202.823 1273.25 201.93 1273.31 200.865C1273.43 198.747 1274.12 195.953 1276.46 193.25C1277.99 191.479 1281.09 190.342 1285.36 189.82C1289.54 189.309 1294.48 189.428 1299.24 189.831C1304 190.232 1308.52 190.908 1311.86 191.486C1313.53 191.774 1314.9 192.038 1315.85 192.228C1316.33 192.324 1316.7 192.401 1316.95 192.454C1317.07 192.481 1317.17 192.501 1317.23 192.515L1317.3 192.53L1317.32 192.534L1317.32 192.535L1317.33 192.535L1321.51 193.465L1318.83 190.143C1318.83 190.138 1318.82 190.131 1318.81 190.121C1318.79 190.089 1318.75 190.029 1318.7 189.943C1318.61 189.769 1318.47 189.492 1318.36 189.123C1318.15 188.399 1318.01 187.278 1318.48 185.807C1319.42 182.825 1322.96 178.079 1334.29 172.457C1345.43 166.934 1352.37 166.243 1356.62 167.713C1360.75 169.137 1362.83 172.777 1363.77 177.355C1364.71 181.936 1364.42 187.103 1364.07 190.936C1364.01 191.578 1363.94 192.197 1363.89 192.772C1363.78 193.848 1363.69 194.769 1363.66 195.395C1363.65 195.646 1363.65 195.904 1363.67 196.138C1363.68 196.256 1363.69 196.399 1363.73 196.55C1363.76 196.683 1363.83 196.929 1364 197.176C1364.2 197.455 1364.57 197.799 1365.15 197.857C1365.67 197.908 1366.05 197.699 1366.22 197.582C1366.52 197.384 1366.73 197.109 1366.85 196.935C1366.88 196.925 1366.92 196.909 1366.99 196.893C1367.22 196.84 1367.61 196.819 1368.17 196.886C1369.28 197.019 1370.78 197.463 1372.48 198.201C1375.89 199.674 1379.77 202.172 1382.47 205.047C1385.24 207.986 1386.39 210.882 1385.47 213.366C1384.52 215.946 1381.06 218.917 1372.4 221.237C1371.96 221.356 1371.18 221.66 1370.84 222.505C1370.51 223.341 1370.87 224.086 1371.08 224.443C1371.53 225.189 1372.43 226.001 1373.36 226.787C1374.07 227.39 1374.89 228.045 1375.79 228.764C1377.48 230.112 1379.45 231.69 1381.57 233.592C1388.02 239.37 1394.88 247.377 1395.44 257.517C1395.7 262.325 1392.97 267.165 1388.26 271.338C1383.56 275.489 1377.1 278.793 1370.41 280.51C1363.71 282.23 1356.97 282.312 1351.68 280.24C1346.49 278.206 1342.57 274.061 1341.38 266.937C1340.86 263.826 1340.54 261.7 1340.34 260.372C1340.29 260.073 1340.26 259.814 1340.22 259.594C1340.18 259.297 1340.14 259.055 1340.11 258.878C1340.09 258.79 1340.07 258.7 1340.05 258.618L1340.05 258.616C1340.05 258.592 1340 258.36 1339.88 258.14C1339.84 258.075 1339.73 257.887 1339.53 257.712C1339.29 257.515 1338.77 257.221 1338.11 257.426C1337.57 257.593 1337.33 257.989 1337.26 258.101C1337.17 258.253 1337.13 258.387 1337.11 258.446C1337.05 258.635 1337.04 258.818 1337.04 258.86L1337.04 258.866C1337.03 259.01 1337.03 259.204 1337.02 259.4C1337.02 259.524 1337.02 259.667 1337.02 259.827C1337.01 261.784 1336.97 266.357 1336.05 271.633C1335.05 277.368 1333.02 283.747 1328.99 288.451C1325.03 293.07 1319.02 296.207 1309.66 295.347C1299.9 294.449 1294.16 291.198 1290.94 287.02C1287.69 282.818 1286.79 277.409 1287.27 271.785C1287.74 266.166 1289.59 260.493 1291.66 255.974C1292.68 253.72 1293.76 251.778 1294.71 250.298C1295.7 248.764 1296.48 247.873 1296.89 247.566C1297.67 246.989 1298.3 246.403 1298.75 245.795C1299.2 245.187 1299.53 244.451 1299.49 243.624C1299.45 242.771 1299.02 242.098 1298.51 241.61C1298.01 241.139 1297.38 240.784 1296.72 240.501C1295.41 239.936 1293.65 239.514 1291.71 239.163C1289.75 238.808 1287.5 238.507 1285.16 238.218C1284.39 238.123 1283.62 238.029 1282.84 237.934C1278.81 237.447 1274.67 236.946 1271.14 236.215C1269.04 235.779 1267.22 235.274 1265.83 234.675C1264.39 234.057 1263.61 233.43 1263.28 232.883C1259.14 225.916 1257.82 220.861 1257.97 217.233C1258.11 213.682 1259.67 211.353 1261.69 209.759C1263.77 208.124 1266.37 207.242 1268.54 206.776C1269.61 206.546 1270.54 206.424 1271.2 206.359C1271.53 206.327 1271.79 206.309 1271.97 206.3C1271.99 206.299 1272.01 206.298 1272.03 206.297C1272.09 206.294 1272.13 206.292 1272.16 206.291L1272.21 206.29L1272.21 206.29L1272.22 206.289ZM1366.83 196.948C1366.83 196.948 1366.83 196.947 1366.83 196.945C1366.83 196.947 1366.83 196.948 1366.83 196.948ZM1364.36 195.258C1364.36 195.257 1364.37 195.252 1364.37 195.243C1364.37 195.253 1364.36 195.258 1364.36 195.258ZM1340.03 259.072C1340.03 259.045 1340.03 259.051 1340.03 259.078C1340.03 259.076 1340.03 259.074 1340.03 259.072ZM1337.13 259.293C1337.13 259.295 1337.13 259.299 1337.13 259.305C1337.12 259.269 1337.12 259.259 1337.13 259.293Z" stroke="#C3A463" stroke-width="3"/>
<path opacity="0.25" d="M1365.22 407.29L1365.22 407.29L1365.22 407.29L1367.22 407.253L1366.62 405.345L1366.62 405.343L1366.62 405.342C1366.62 405.338 1366.61 405.327 1366.61 405.31C1366.6 405.277 1366.59 405.222 1366.57 405.144C1366.53 404.99 1366.48 404.752 1366.43 404.443C1366.33 403.823 1366.25 402.93 1366.31 401.865C1366.43 399.747 1367.12 396.953 1369.46 394.25C1370.99 392.479 1374.09 391.342 1378.36 390.82C1382.54 390.309 1387.48 390.428 1392.24 390.831C1397 391.232 1401.52 391.908 1404.86 392.486C1406.53 392.774 1407.9 393.038 1408.85 393.228C1409.33 393.324 1409.7 393.401 1409.95 393.454C1410.07 393.481 1410.17 393.501 1410.23 393.515L1410.3 393.53L1410.32 393.534L1410.32 393.535L1410.33 393.535L1414.51 394.465L1411.83 391.143C1411.83 391.138 1411.82 391.131 1411.81 391.121C1411.79 391.089 1411.75 391.03 1411.7 390.943C1411.61 390.769 1411.47 390.492 1411.36 390.123C1411.15 389.399 1411.01 388.278 1411.48 386.807C1412.42 383.825 1415.96 379.079 1427.29 373.457C1438.43 367.934 1445.37 367.243 1449.62 368.713C1453.75 370.137 1455.83 373.777 1456.77 378.355C1457.71 382.936 1457.42 388.103 1457.07 391.937C1457.01 392.578 1456.94 393.197 1456.89 393.772C1456.78 394.848 1456.69 395.769 1456.66 396.396C1456.65 396.646 1456.65 396.904 1456.67 397.138C1456.68 397.256 1456.69 397.4 1456.73 397.55C1456.76 397.683 1456.83 397.929 1457 398.176C1457.2 398.455 1457.57 398.799 1458.15 398.857C1458.67 398.908 1459.05 398.699 1459.22 398.582C1459.52 398.384 1459.73 398.109 1459.85 397.935C1459.88 397.925 1459.92 397.909 1459.99 397.893C1460.22 397.84 1460.61 397.819 1461.17 397.886C1462.28 398.019 1463.78 398.463 1465.48 399.201C1468.89 400.674 1472.77 403.172 1475.47 406.047C1478.24 408.986 1479.39 411.882 1478.47 414.366C1477.52 416.946 1474.06 419.917 1465.4 422.237C1464.96 422.356 1464.18 422.66 1463.84 423.505C1463.51 424.341 1463.87 425.086 1464.08 425.443C1464.53 426.189 1465.43 427.001 1466.36 427.787C1467.07 428.391 1467.89 429.045 1468.79 429.764C1470.48 431.112 1472.45 432.69 1474.57 434.592C1481.02 440.37 1487.88 448.377 1488.44 458.517C1488.7 463.325 1485.97 468.165 1481.26 472.338C1476.56 476.489 1470.1 479.793 1463.41 481.51C1456.71 483.23 1449.97 483.312 1444.68 481.24C1439.49 479.206 1435.57 475.061 1434.38 467.937C1433.86 464.826 1433.54 462.7 1433.34 461.372C1433.29 461.073 1433.26 460.814 1433.22 460.594C1433.18 460.297 1433.14 460.055 1433.11 459.878C1433.09 459.791 1433.07 459.7 1433.05 459.618L1433.05 459.616C1433.05 459.592 1433 459.36 1432.88 459.14C1432.84 459.075 1432.73 458.887 1432.53 458.712C1432.29 458.515 1431.77 458.221 1431.11 458.426C1430.57 458.593 1430.33 458.989 1430.26 459.101C1430.17 459.253 1430.13 459.388 1430.11 459.446C1430.05 459.635 1430.04 459.818 1430.04 459.86L1430.04 459.866C1430.03 460.01 1430.03 460.204 1430.02 460.4C1430.02 460.524 1430.02 460.667 1430.02 460.827C1430.01 462.784 1429.97 467.357 1429.05 472.634C1428.05 478.368 1426.02 484.747 1421.99 489.451C1418.03 494.07 1412.02 497.207 1402.66 496.347C1392.9 495.449 1387.16 492.198 1383.94 488.02C1380.69 483.818 1379.79 478.409 1380.27 472.785C1380.74 467.166 1382.59 461.493 1384.66 456.974C1385.68 454.72 1386.76 452.778 1387.71 451.298C1388.7 449.764 1389.48 448.873 1389.89 448.566C1390.67 447.989 1391.3 447.404 1391.75 446.795C1392.2 446.187 1392.53 445.451 1392.49 444.624C1392.45 443.771 1392.02 443.098 1391.51 442.61C1391.01 442.139 1390.38 441.784 1389.72 441.501C1388.41 440.936 1386.65 440.514 1384.71 440.163C1382.75 439.808 1380.5 439.508 1378.16 439.218C1377.39 439.123 1376.62 439.029 1375.84 438.934C1371.81 438.447 1367.67 437.946 1364.14 437.215C1362.04 436.779 1360.22 436.275 1358.83 435.675C1357.39 435.057 1356.61 434.43 1356.28 433.883C1352.14 426.917 1350.82 421.861 1350.97 418.233C1351.11 414.683 1352.67 412.353 1354.69 410.759C1356.77 409.124 1359.37 408.242 1361.54 407.776C1362.61 407.546 1363.54 407.424 1364.2 407.359C1364.53 407.327 1364.79 407.309 1364.97 407.3C1364.99 407.299 1365.01 407.298 1365.03 407.297C1365.09 407.294 1365.13 407.292 1365.16 407.291L1365.21 407.29L1365.21 407.29L1365.22 407.29ZM1459.83 397.948C1459.83 397.948 1459.83 397.947 1459.83 397.945C1459.83 397.947 1459.83 397.948 1459.83 397.948ZM1457.36 396.258C1457.36 396.257 1457.37 396.252 1457.37 396.243C1457.37 396.254 1457.36 396.258 1457.36 396.258ZM1433.03 460.072C1433.03 460.045 1433.03 460.051 1433.03 460.078C1433.03 460.076 1433.03 460.074 1433.03 460.072ZM1430.13 460.293C1430.13 460.295 1430.13 460.299 1430.13 460.305C1430.12 460.269 1430.12 460.26 1430.13 460.293Z" stroke="#C3A463" stroke-width="3"/>
<path opacity="0.25" d="M23.7537 20.3967L23.7538 20.3967L23.7543 20.3968L25.674 20.9778L25.6869 18.977L25.6869 18.9748L25.6869 18.9742C25.687 18.9692 25.6873 18.958 25.688 18.9409C25.6893 18.9066 25.6921 18.8488 25.698 18.7697C25.7097 18.6113 25.7336 18.3686 25.7819 18.0596C25.8786 17.44 26.0719 16.5632 26.4561 15.5683C27.2204 13.5892 28.7377 11.143 31.7921 9.28801C33.793 8.07281 37.0958 7.94248 41.3203 8.75633C45.4571 9.55327 50.1168 11.1816 54.529 13.0268C58.9299 14.8674 63.0285 16.8999 66.0307 18.475C67.5305 19.2617 68.7535 19.9327 69.6 20.4061C70.0232 20.6427 70.3521 20.8299 70.5743 20.9573C70.6854 21.0211 70.7698 21.0698 70.8259 21.1024L70.8887 21.1389L70.9038 21.1478L70.9073 21.1498L70.9079 21.1502L74.6069 23.3198L73.0732 19.3345C73.0716 19.3295 73.0689 19.3211 73.0655 19.3095C73.0544 19.2725 73.0354 19.2034 73.0155 19.106C72.9756 18.9106 72.9332 18.6061 72.942 18.221C72.9592 17.4655 73.1733 16.3565 74.0679 15.0995C75.8812 12.5517 80.7056 9.12035 93.2197 7.24813C105.512 5.40904 112.326 6.88015 115.928 9.5867C119.415 12.2075 120.278 16.3097 119.766 20.9551C119.255 25.6034 117.393 30.4319 115.883 33.9729C115.63 34.5657 115.381 35.1357 115.15 35.6648C114.717 36.6561 114.347 37.5044 114.13 38.0928C114.044 38.328 113.962 38.5731 113.908 38.8014C113.88 38.9159 113.853 39.0582 113.84 39.2128C113.83 39.349 113.821 39.6039 113.909 39.8921C114.008 40.217 114.261 40.6606 114.795 40.893C115.268 41.0991 115.694 41.0179 115.897 40.9604C116.242 40.8629 116.527 40.6655 116.695 40.5376C116.721 40.535 116.768 40.5335 116.841 40.54C117.077 40.561 117.448 40.6582 117.959 40.8935C118.977 41.3617 120.27 42.2454 121.667 43.4707C124.455 45.9176 127.383 49.4868 129.072 53.0517C130.799 56.6964 131.01 59.8075 129.373 61.8895C127.673 64.0518 123.472 65.819 114.517 65.3697C114.061 65.3468 113.224 65.3965 112.646 66.0988C112.075 66.7931 112.185 67.6105 112.279 68.016C112.474 68.8625 113.08 69.9118 113.726 70.946C114.221 71.7394 114.8 72.6131 115.436 73.5741C116.628 75.3753 118.022 77.4831 119.456 79.9433C123.814 87.4197 127.885 97.1451 125.307 106.968C124.085 111.626 120.002 115.395 114.232 117.919C108.492 120.429 101.322 121.589 94.4342 121.171C87.5308 120.753 81.0917 118.763 76.6913 115.167C72.3716 111.637 69.9127 106.488 70.9671 99.3433C71.4275 96.2231 71.7753 94.1012 71.9925 92.7761C72.0415 92.4774 72.0838 92.2193 72.1193 91.9992C72.1671 91.7028 72.2048 91.4613 72.2291 91.2825C72.2411 91.1947 72.2524 91.1032 72.2595 91.0194L72.2597 91.0174C72.2623 90.9929 72.2868 90.7574 72.2382 90.5101C72.2239 90.4377 72.1791 90.2257 72.0349 89.9954C71.8725 89.7361 71.4654 89.2958 70.7748 89.2886C70.2127 89.2828 69.8552 89.5831 69.7577 89.6697C69.6256 89.787 69.5438 89.9015 69.5093 89.9519C69.3979 90.1144 69.3306 90.2853 69.3151 90.3245L69.3131 90.3297C69.2595 90.4636 69.1966 90.6479 69.1346 90.8335C69.0952 90.9512 69.0505 91.0866 69.0003 91.2387C68.3867 93.0974 66.9531 97.44 64.4558 102.179C61.7415 107.329 57.8556 112.778 52.5718 116.017C47.3831 119.197 40.7018 120.339 32.0604 116.648C23.0435 112.798 18.579 107.941 16.794 102.976C14.9985 97.982 15.7975 92.5563 17.9787 87.3507C20.158 82.1497 23.6586 77.3179 27.0083 73.6498C28.6793 71.8201 30.2939 70.3006 31.6592 69.1856C33.074 68.0303 34.0871 67.4211 34.5739 67.2552C35.4878 66.9437 36.2722 66.5813 36.8839 66.1396C37.4965 65.6974 38.0387 65.099 38.2539 64.2997C38.4759 63.475 38.2789 62.705 37.9385 62.0823C37.61 61.4815 37.1149 60.9484 36.5776 60.4784C35.5018 59.5376 33.958 58.5963 32.2205 57.6669C30.4634 56.7272 28.4147 55.7512 26.276 54.7569C25.5752 54.4311 24.8649 54.1034 24.1506 53.7738C20.4679 52.0745 16.6801 50.3268 13.5459 48.5475C11.6776 47.487 10.1069 46.4508 8.96126 45.4511C7.78236 44.4223 7.2339 43.5865 7.09201 42.9655C5.28667 35.064 5.58064 29.8473 6.83514 26.4391C8.06246 23.1047 10.2579 21.3652 12.673 20.4691C15.15 19.5501 17.9007 19.5098 20.1037 19.7308C21.1927 19.8401 22.1183 20.0102 22.7681 20.152C23.0923 20.2228 23.3461 20.2862 23.5153 20.3308C23.5356 20.3362 23.5547 20.3413 23.5725 20.346C23.6289 20.3612 23.6727 20.3734 23.7032 20.3821L23.7459 20.3944L23.7525 20.3963L23.7537 20.3967ZM116.667 40.5423C116.667 40.5422 116.669 40.5416 116.673 40.5407C116.669 40.542 116.667 40.5424 116.667 40.5423ZM114.84 38.1767C114.84 38.1763 114.845 38.1725 114.856 38.1664C114.845 38.174 114.84 38.1771 114.84 38.1767ZM72.0983 91.4443C72.1083 91.4193 72.1073 91.425 72.0961 91.45C72.0969 91.448 72.0976 91.4461 72.0983 91.4443ZM69.2703 90.7649C69.2701 90.7672 69.2698 90.7711 69.2692 90.7766C69.2706 90.7392 69.2733 90.7305 69.2703 90.7649Z" stroke="#C3A463" stroke-width="3"/>
<path opacity="0.25" d="M91.7537 202.397L91.7538 202.397L91.7543 202.397L93.674 202.978L93.6869 200.977L93.6869 200.975L93.6869 200.974C93.687 200.969 93.6873 200.958 93.688 200.941C93.6893 200.907 93.6921 200.849 93.698 200.77C93.7097 200.611 93.7336 200.369 93.7819 200.06C93.8786 199.44 94.0719 198.563 94.4561 197.568C95.2204 195.589 96.7377 193.143 99.7921 191.288C101.793 190.073 105.096 189.942 109.32 190.756C113.457 191.553 118.117 193.182 122.529 195.027C126.93 196.867 131.028 198.9 134.031 200.475C135.53 201.262 136.753 201.933 137.6 202.406C138.023 202.643 138.352 202.83 138.574 202.957C138.685 203.021 138.77 203.07 138.826 203.102L138.889 203.139L138.904 203.148L138.907 203.15L138.908 203.15L142.607 205.32L141.073 201.334C141.072 201.329 141.069 201.321 141.065 201.309C141.054 201.273 141.035 201.203 141.015 201.106C140.976 200.911 140.933 200.606 140.942 200.221C140.959 199.465 141.173 198.357 142.068 197.1C143.881 194.552 148.706 191.12 161.22 189.248C173.512 187.409 180.326 188.88 183.928 191.587C187.415 194.207 188.278 198.31 187.766 202.955C187.255 207.603 185.393 212.432 183.883 215.973C183.63 216.566 183.381 217.136 183.15 217.665C182.717 218.656 182.347 219.504 182.13 220.093C182.044 220.328 181.962 220.573 181.908 220.801C181.88 220.916 181.853 221.058 181.84 221.213C181.83 221.349 181.821 221.604 181.909 221.892C182.008 222.217 182.261 222.661 182.795 222.893C183.268 223.099 183.694 223.018 183.897 222.96C184.242 222.863 184.527 222.666 184.695 222.538C184.721 222.535 184.768 222.533 184.841 222.54C185.077 222.561 185.448 222.658 185.959 222.893C186.977 223.362 188.27 224.245 189.667 225.471C192.455 227.918 195.383 231.487 197.072 235.052C198.799 238.696 199.01 241.807 197.373 243.89C195.673 246.052 191.472 247.819 182.517 247.37C182.061 247.347 181.224 247.396 180.646 248.099C180.075 248.793 180.185 249.61 180.279 250.016C180.474 250.863 181.08 251.912 181.726 252.946C182.221 253.739 182.8 254.613 183.436 255.574C184.628 257.375 186.022 259.483 187.456 261.943C191.814 269.42 195.885 279.145 193.307 288.968C192.085 293.626 188.002 297.395 182.232 299.919C176.492 302.429 169.322 303.589 162.434 303.171C155.531 302.753 149.092 300.763 144.691 297.167C140.372 293.637 137.913 288.488 138.967 281.343C139.428 278.223 139.775 276.101 139.993 274.776C140.041 274.477 140.084 274.219 140.119 273.999C140.167 273.703 140.205 273.461 140.229 273.282C140.241 273.195 140.252 273.103 140.26 273.019L140.26 273.017C140.262 272.993 140.287 272.757 140.238 272.51C140.224 272.438 140.179 272.226 140.035 271.995C139.873 271.736 139.465 271.296 138.775 271.289C138.213 271.283 137.855 271.583 137.758 271.67C137.626 271.787 137.544 271.902 137.509 271.952C137.398 272.114 137.331 272.285 137.315 272.324L137.313 272.33C137.259 272.464 137.197 272.648 137.135 272.833C137.095 272.951 137.05 273.087 137 273.239C136.387 275.097 134.953 279.44 132.456 284.179C129.741 289.329 125.856 294.778 120.572 298.017C115.383 301.197 108.702 302.339 100.06 298.648C91.0435 294.798 86.579 289.941 84.794 284.976C82.9985 279.982 83.7975 274.556 85.9787 269.351C88.158 264.15 91.6586 259.318 95.0083 255.65C96.6793 253.82 98.2939 252.301 99.6592 251.186C101.074 250.03 102.087 249.421 102.574 249.255C103.488 248.944 104.272 248.581 104.884 248.14C105.496 247.697 106.039 247.099 106.254 246.3C106.476 245.475 106.279 244.705 105.938 244.082C105.61 243.482 105.115 242.948 104.578 242.478C103.502 241.538 101.958 240.596 100.22 239.667C98.4634 238.727 96.4147 237.751 94.276 236.757C93.5752 236.431 92.8649 236.103 92.1506 235.774C88.4679 234.074 84.6801 232.327 81.5459 230.548C79.6776 229.487 78.1069 228.451 76.9613 227.451C75.7824 226.422 75.2339 225.587 75.092 224.966C73.2867 217.064 73.5806 211.847 74.8351 208.439C76.0625 205.105 78.2579 203.365 80.673 202.469C83.15 201.55 85.9007 201.51 88.1037 201.731C89.1927 201.84 90.1183 202.01 90.7681 202.152C91.0923 202.223 91.3461 202.286 91.5153 202.331C91.5356 202.336 91.5547 202.341 91.5725 202.346C91.6289 202.361 91.6727 202.373 91.7032 202.382L91.7459 202.394L91.7525 202.396L91.7537 202.397ZM184.667 222.542C184.667 222.542 184.669 222.542 184.673 222.541C184.669 222.542 184.667 222.542 184.667 222.542ZM182.84 220.177C182.84 220.176 182.845 220.173 182.856 220.166C182.845 220.174 182.84 220.177 182.84 220.177ZM140.098 273.444C140.108 273.419 140.107 273.425 140.096 273.45C140.097 273.448 140.098 273.446 140.098 273.444ZM137.27 272.765C137.27 272.767 137.27 272.771 137.269 272.777C137.271 272.739 137.273 272.73 137.27 272.765Z" stroke="#C3A463" stroke-width="3"/>
</svg>
