<svg width="466" height="436" viewBox="0 0 466 436" fill="none" xmlns="http://www.w3.org/2000/svg">
<path opacity="0.25" d="M409.875 318.68L409.874 318.68L407.869 318.591L408.352 320.537L408.352 320.538L408.352 320.538L408.352 320.539L408.353 320.544L408.362 320.581C408.37 320.616 408.383 320.672 408.399 320.748C408.431 320.9 408.478 321.133 408.533 321.439C408.641 322.053 408.779 322.962 408.888 324.117C409.107 326.428 409.212 329.716 408.748 333.585C407.822 341.311 404.632 351.358 395.533 360.635C389.008 367.288 377.115 370.504 362.484 371.368C347.941 372.226 331.073 370.743 315.003 368.366C298.944 365.991 283.742 362.733 272.55 360.067C266.955 358.734 262.366 357.55 259.178 356.7C257.583 356.275 256.339 355.933 255.495 355.698C255.073 355.58 254.75 355.489 254.534 355.428C254.426 355.397 254.345 355.374 254.29 355.359L254.23 355.341L254.215 355.337L254.211 355.336C254.21 355.336 254.21 355.336 253.794 356.777L254.21 355.336L250.09 354.146L252.566 357.639L252.567 357.64L252.569 357.642L252.57 357.644C252.575 357.651 252.585 357.665 252.599 357.687C252.626 357.729 252.672 357.8 252.73 357.898C252.847 358.093 253.018 358.397 253.214 358.802C253.607 359.612 254.096 360.824 254.456 362.386C255.173 365.496 255.385 370.033 253.224 375.617C248.887 386.823 234.851 402.569 195.188 419.234C156.288 435.58 131.628 436.918 116.231 430.495C100.965 424.127 94.3321 409.905 92.0574 393.723C89.7823 377.537 91.9327 359.749 93.927 346.878C94.2787 344.608 94.6282 342.476 94.947 340.531C95.5219 337.024 95.997 334.126 96.2057 332.122C96.2879 331.333 96.3353 330.628 96.3256 330.048C96.3207 329.758 96.3011 329.466 96.254 329.192C96.2099 328.937 96.1252 328.593 95.9286 328.269C95.7122 327.912 95.3068 327.506 94.6709 327.402C94.1001 327.309 93.6344 327.512 93.3676 327.667C92.8557 327.963 92.3984 328.48 92.0067 328.985C91.549 329.574 90.7438 330.046 89.4149 330.261C88.0806 330.477 86.3457 330.408 84.252 330.023C80.0699 329.254 74.7628 327.282 69.01 324.352C57.5091 318.496 44.5486 308.979 35.6891 298.284C26.7734 287.52 22.3581 276.022 26.8344 265.918C31.352 255.721 45.2376 246.142 75.0709 240.121C76.2571 239.881 77.4971 239.361 78.0618 238.158C78.622 236.964 78.2298 235.704 77.7262 234.728C76.7024 232.744 74.318 230.218 71.259 227.292C69.099 225.226 66.5416 222.904 63.6966 220.322C58.2452 215.373 51.7382 209.466 44.9502 202.563C24.3455 181.61 2.03498 152.301 2.29694 116.533C2.42715 98.7521 13.5673 82.1159 30.7713 68.7196C47.9497 55.3432 70.968 45.3735 94.3265 40.9126C117.7 36.4486 141.236 37.5328 159.52 46.0472C177.709 54.5178 190.821 70.3875 193.452 95.891C194.547 106.511 195.179 113.771 195.571 118.283C195.66 119.296 195.736 120.171 195.802 120.914C195.893 121.924 195.967 122.706 196.031 123.262C196.063 123.538 196.094 123.778 196.126 123.97L196.128 123.982C196.148 124.106 196.198 124.41 196.323 124.672C196.358 124.747 196.458 124.947 196.658 125.138C196.883 125.353 197.39 125.681 198.065 125.517C198.615 125.383 198.891 125 198.968 124.887C199.071 124.735 199.125 124.596 199.15 124.529C199.236 124.294 199.272 124.026 199.291 123.889C199.338 123.526 199.384 122.975 199.434 122.298C199.464 121.883 199.498 121.404 199.535 120.864C199.995 114.262 201.085 98.6063 205.378 80.7321C210.029 61.3707 218.399 39.5906 233.631 23.9334C248.786 8.35622 270.853 -1.28853 303.282 3.75628C336.62 8.94256 356.302 21.4681 366.991 37.2811C377.698 53.1202 379.572 72.5384 376.698 91.8848C373.824 111.226 366.223 130.336 358.194 145.362C354.182 152.869 350.076 159.332 346.423 164.271C342.733 169.262 339.609 172.554 337.58 173.877C335.007 175.554 333.062 177.169 331.742 178.748C330.422 180.328 329.646 181.972 329.623 183.671C329.599 185.395 330.354 186.903 331.546 188.184C332.72 189.446 334.374 190.551 336.335 191.546C340.259 193.536 345.764 195.252 352.167 196.831C358.59 198.416 366.018 199.887 373.834 201.356C376.372 201.834 378.95 202.311 381.55 202.792C395.003 205.282 409.025 207.877 420.915 211.129C428.005 213.069 434.265 215.224 439.153 217.696C444.079 220.187 447.396 222.894 448.897 225.821C461.538 250.468 465.233 268.493 463.869 281.644C462.512 294.717 456.14 303.125 448.23 308.59C440.265 314.093 430.7 316.632 423.05 317.782C419.237 318.356 415.929 318.58 413.578 318.661C412.404 318.701 411.47 318.705 410.833 318.7C410.515 318.697 410.271 318.692 410.109 318.688C410.028 318.685 409.967 318.683 409.928 318.682L409.885 318.68L409.876 318.68L409.875 318.68Z" stroke="#C3A463" stroke-width="3"/>
</svg>
