<svg width="19" height="39" viewBox="0 0 19 39" fill="none" xmlns="http://www.w3.org/2000/svg">
<path fill-rule="evenodd" clip-rule="evenodd" d="M17.7405 1.39404C17.5267 1.14512 17.2728 0.947625 16.9933 0.812874C16.7137 0.678124 16.414 0.608765 16.1113 0.608765C15.8087 0.608765 15.509 0.678124 15.2294 0.812874C14.9499 0.947625 14.6959 1.14512 14.4822 1.39404L0.675896 17.4317C0.461607 17.6799 0.291594 17.9749 0.175592 18.2996C0.0595894 18.6244 -0.00012207 18.9725 -0.00012207 19.3241C-0.00012207 19.6757 0.0595894 20.0238 0.175592 20.3485C0.291594 20.6733 0.461607 20.9682 0.675896 21.2165L14.4822 37.2542C14.9143 37.7561 15.5003 38.038 16.1113 38.038C16.7224 38.038 17.3084 37.7561 17.7405 37.2542C18.1726 36.7522 18.4153 36.0715 18.4153 35.3617C18.4153 34.6519 18.1726 33.9712 17.7405 33.4693L5.55872 19.3241L17.7405 5.17892C17.9548 4.93062 18.1248 4.63566 18.2408 4.31093C18.3568 3.98619 18.4165 3.63806 18.4165 3.28648C18.4165 2.93489 18.3568 2.58676 18.2408 2.26203C18.1248 1.93729 17.9548 1.64233 17.7405 1.39404Z" fill="#8C7035"/>
</svg>
