<svg width="24" height="24" viewBox="0 0 24 24" fill="none" xmlns="http://www.w3.org/2000/svg">
<path d="M9 21.9999C9.55228 21.9999 10 21.5522 10 20.9999C10 20.4476 9.55228 19.9999 9 19.9999C8.44772 19.9999 8 20.4476 8 20.9999C8 21.5522 8.44772 21.9999 9 21.9999Z" stroke="#111111" stroke-width="2" stroke-linecap="round" stroke-linejoin="round"/>
<path d="M20 21.9999C20.5523 21.9999 21 21.5522 21 20.9999C21 20.4476 20.5523 19.9999 20 19.9999C19.4477 19.9999 19 20.4476 19 20.9999C19 21.5522 19.4477 21.9999 20 21.9999Z" stroke="#111111" stroke-width="2" stroke-linecap="round" stroke-linejoin="round"/>
<path d="M1 1H5L7.68 14.39C7.77144 14.8504 8.02191 15.264 8.38755 15.5583C8.75318 15.8526 9.2107 16.009 9.68 16H19.4C19.8693 16.009 20.3268 15.8526 20.6925 15.5583C21.0581 15.264 21.3086 14.8504 21.4 14.39L23 6H6" stroke="#111111" stroke-width="2" stroke-linecap="round" stroke-linejoin="round"/>
</svg>
