<svg width="20" height="20" viewBox="0 0 20 20" fill="none" xmlns="http://www.w3.org/2000/svg">
<path d="M4.16667 2.5H15.8333C16.2754 2.5 16.6993 2.67559 17.0118 2.98816C17.3244 3.30072 17.5 3.72464 17.5 4.16667V15.8333C17.5 16.2754 17.3244 16.6993 17.0118 17.0118C16.6993 17.3244 16.2754 17.5 15.8333 17.5H4.16667C3.72464 17.5 3.30072 17.3244 2.98816 17.0118C2.67559 16.6993 2.5 16.2754 2.5 15.8333V4.16667C2.5 3.72464 2.67559 3.30072 2.98816 2.98816C3.30072 2.67559 3.72464 2.5 4.16667 2.5ZM15 4.16667H12.9167C12.1431 4.16667 11.4013 4.47396 10.8543 5.02094C10.3073 5.56792 10 6.30979 10 7.08333V9.16667H8.33333V11.6667H10V17.5H12.5V11.6667H15V9.16667H12.5V7.5C12.5 7.27899 12.5878 7.06702 12.7441 6.91074C12.9004 6.75446 13.1123 6.66667 13.3333 6.66667H15V4.16667Z" fill="#C3A463"/>
</svg>
