<svg width="14" height="29" viewBox="0 0 14 29" fill="none" xmlns="http://www.w3.org/2000/svg">
<path fill-rule="evenodd" clip-rule="evenodd" d="M13.4861 27.6812C13.3236 27.8692 13.1306 28.0184 12.9181 28.1202C12.7056 28.222 12.4777 28.2744 12.2477 28.2744C12.0176 28.2744 11.7898 28.222 11.5772 28.1202C11.3647 28.0184 11.1717 27.8692 11.0092 27.6812L0.513897 15.5663C0.350998 15.3787 0.221757 15.1559 0.133573 14.9106C0.0453908 14.6653 -1.21274e-06 14.4023 -1.23596e-06 14.1367C-1.25918e-06 13.8711 0.0453908 13.6081 0.133573 13.3628C0.221757 13.1175 0.350998 12.8947 0.513897 12.7071L11.0092 0.592163C11.3377 0.213019 11.7831 1.92673e-05 12.2477 1.92267e-05C12.7122 1.91861e-05 13.1576 0.213018 13.4861 0.592163C13.8146 0.971308 13.9991 1.48554 13.9991 2.02173C13.9991 2.55792 13.8146 3.07215 13.4861 3.45129L4.22574 14.1367L13.4861 24.8221C13.649 25.0096 13.7782 25.2325 13.8664 25.4778C13.9546 25.7231 14 25.9861 14 26.2516C14 26.5172 13.9546 26.7802 13.8664 27.0255C13.7782 27.2708 13.649 27.4936 13.4861 27.6812Z" fill="#FAFAFA"/>
</svg>
