<svg width="40" height="38" viewBox="0 0 40 38" fill="none" xmlns="http://www.w3.org/2000/svg">
<ellipse cx="15" cy="23.6173" rx="15" ry="14.1705" fill="#C3A463"/>
<path d="M36 6H12C11.4696 6 10.9609 6.21071 10.5858 6.58579C10.2107 6.96086 10 7.46957 10 8V24C10 24.5304 10.2107 25.0391 10.5858 25.4142C10.9609 25.7893 11.4696 26 12 26H36C36.5304 26 37.0391 25.7893 37.4142 25.4142C37.7893 25.0391 38 24.5304 38 24V8C38 7.46957 37.7893 6.96086 37.4142 6.58579C37.0391 6.21071 36.5304 6 36 6ZM33.8 8L24 14.78L14.2 8H33.8ZM12 24V8.91L23.43 16.82C23.5974 16.9361 23.7963 16.9984 24 16.9984C24.2037 16.9984 24.4026 16.9361 24.57 16.82L36 8.91V24H12Z" fill="white"/>
</svg>
