<svg width="24" height="28" viewBox="0 0 24 28" fill="none" xmlns="http://www.w3.org/2000/svg">
<path d="M9 26.4247C9.55228 26.4247 10 25.8869 10 25.2236C10 24.5602 9.55228 24.0225 9 24.0225C8.44772 24.0225 8 24.5602 8 25.2236C8 25.8869 8.44772 26.4247 9 26.4247Z" stroke="white" stroke-width="2" stroke-linecap="round" stroke-linejoin="round"/>
<path d="M20 26.4247C20.5523 26.4247 21 25.8869 21 25.2236C21 24.5602 20.5523 24.0225 20 24.0225C19.4477 24.0225 19 24.5602 19 25.2236C19 25.8869 19.4477 26.4247 20 26.4247Z" stroke="white" stroke-width="2" stroke-linecap="round" stroke-linejoin="round"/>
<path d="M1 1.20117H5L7.68 17.2842C7.77144 17.8372 8.02191 18.3339 8.38755 18.6875C8.75318 19.041 9.2107 19.2288 9.68 19.218H19.4C19.8693 19.2288 20.3268 19.041 20.6925 18.6875C21.0581 18.3339 21.3086 17.8372 21.4 17.2842L23 7.20679H6" stroke="white" stroke-width="2" stroke-linecap="round" stroke-linejoin="round"/>
</svg>
