<svg width="38" height="37" viewBox="0 0 38 37" fill="none" xmlns="http://www.w3.org/2000/svg">
<ellipse cx="23" cy="22.6729" rx="15" ry="14.1705" fill="#C3A463"/>
<path d="M15.8687 7.97461C15.0775 7.97461 14.3042 8.20921 13.6464 8.64873C12.9886 9.08826 12.4759 9.71297 12.1731 10.4439C11.8704 11.1748 11.7912 11.979 11.9455 12.755C12.0999 13.5309 12.4808 14.2436 13.0402 14.803C13.5996 15.3624 14.3124 15.7434 15.0883 15.8977C15.8642 16.0521 16.6685 15.9729 17.3994 15.6701C18.1303 15.3674 18.755 14.8547 19.1945 14.1969C19.6341 13.5391 19.8687 12.7657 19.8687 11.9746C19.8674 10.9141 19.4456 9.8974 18.6957 9.14752C17.9459 8.39763 16.9291 7.97582 15.8687 7.97461ZM15.8687 13.9746C15.4731 13.9746 15.0864 13.8573 14.7575 13.6375C14.4286 13.4178 14.1723 13.1054 14.0209 12.74C13.8695 12.3745 13.8299 11.9724 13.9071 11.5844C13.9843 11.1965 14.1747 10.8401 14.4544 10.5604C14.7341 10.2807 15.0905 10.0902 15.4785 10.013C15.8664 9.93587 16.2686 9.97548 16.634 10.1269C16.9995 10.2782 17.3118 10.5346 17.5316 10.8635C17.7514 11.1924 17.8687 11.579 17.8687 11.9746C17.868 12.5049 17.6571 13.0132 17.2822 13.3881C16.9073 13.7631 16.3989 13.974 15.8687 13.9746Z" fill="white"/>
<path d="M23.556 4.28243C21.6556 2.38246 19.1187 1.2538 16.435 1.11428C13.7513 0.974763 11.1111 1.83428 9.02384 3.52695C6.93661 5.21961 5.55036 7.62543 5.13264 10.2801C4.71492 12.9347 5.29534 15.65 6.76188 17.9019L14.3186 29.5027C14.4867 29.7608 14.7167 29.9729 14.9875 30.1197C15.2584 30.2665 15.5616 30.3434 15.8697 30.3434C16.1777 30.3434 16.481 30.2665 16.7518 30.1197C17.0227 29.9729 17.2526 29.7608 17.4208 29.5027L24.9777 17.9019C26.3385 15.8129 26.9398 13.3197 26.681 10.8401C26.4222 8.36056 25.3189 6.0453 23.556 4.28243ZM23.3019 16.8102L15.8697 28.2196L8.43738 16.8102C6.16238 13.3177 6.65032 8.64399 9.59757 5.69662C10.4212 4.87294 11.3991 4.21955 12.4752 3.77378C13.5514 3.32801 14.7048 3.09857 15.8697 3.09857C17.0345 3.09857 18.188 3.32801 19.2642 3.77378C20.3403 4.21955 21.3182 4.87294 22.1418 5.69662C25.0891 8.64399 25.5769 13.3177 23.3019 16.8102Z" fill="white"/>
</svg>
