<svg width="20" height="20" viewBox="0 0 20 20" fill="none" xmlns="http://www.w3.org/2000/svg">
<mask id="mask0" mask-type="alpha" maskUnits="userSpaceOnUse" x="1" y="1" width="18" height="18">
<path d="M6.5875 1.875H13.4125C16.0125 1.875 18.125 3.9875 18.125 6.5875V13.4125C18.125 14.6623 17.6285 15.861 16.7448 16.7448C15.861 17.6285 14.6623 18.125 13.4125 18.125H6.5875C3.9875 18.125 1.875 16.0125 1.875 13.4125V6.5875C1.875 5.33767 2.37149 4.13903 3.25526 3.25526C4.13903 2.37149 5.33767 1.875 6.5875 1.875ZM6.425 3.5C5.64924 3.5 4.90526 3.80817 4.35671 4.35671C3.80817 4.90526 3.5 5.64924 3.5 6.425V13.575C3.5 15.1919 4.80813 16.5 6.425 16.5H13.575C14.3508 16.5 15.0948 16.1918 15.6433 15.6433C16.1918 15.0948 16.5 14.3508 16.5 13.575V6.425C16.5 4.80813 15.1919 3.5 13.575 3.5H6.425ZM14.2656 4.71875C14.535 4.71875 14.7933 4.82575 14.9838 5.01622C15.1743 5.20669 15.2813 5.46502 15.2813 5.73438C15.2813 6.00374 15.1743 6.26207 14.9838 6.45253C14.7933 6.643 14.535 6.75 14.2656 6.75C13.9963 6.75 13.7379 6.643 13.5475 6.45253C13.357 6.26207 13.25 6.00374 13.25 5.73438C13.25 5.46502 13.357 5.20669 13.5475 5.01622C13.7379 4.82575 13.9963 4.71875 14.2656 4.71875ZM10 5.9375C11.0774 5.9375 12.1108 6.36551 12.8726 7.12738C13.6345 7.88925 14.0625 8.92256 14.0625 10C14.0625 11.0774 13.6345 12.1108 12.8726 12.8726C12.1108 13.6345 11.0774 14.0625 10 14.0625C8.92256 14.0625 7.88925 13.6345 7.12738 12.8726C6.36551 12.1108 5.9375 11.0774 5.9375 10C5.9375 8.92256 6.36551 7.88925 7.12738 7.12738C7.88925 6.36551 8.92256 5.9375 10 5.9375ZM10 7.5625C9.35354 7.5625 8.73355 7.81931 8.27643 8.27643C7.81931 8.73355 7.5625 9.35354 7.5625 10C7.5625 10.6465 7.81931 11.2665 8.27643 11.7236C8.73355 12.1807 9.35354 12.4375 10 12.4375C10.6465 12.4375 11.2665 12.1807 11.7236 11.7236C12.1807 11.2665 12.4375 10.6465 12.4375 10C12.4375 9.35354 12.1807 8.73355 11.7236 8.27643C11.2665 7.81931 10.6465 7.5625 10 7.5625Z" fill="url(#paint0_linear)"/>
</mask>
<g mask="url(#mask0)">
<g filter="url(#filter0_f)">
<circle cx="5.83325" cy="15.8334" r="10" fill="url(#paint1_radial)"/>
<circle cx="21.6665" cy="8.33337" r="10" fill="url(#paint2_radial)"/>
<circle cx="5.83325" r="10" fill="url(#paint3_radial)"/>
</g>
</g>
<path d="M6.5875 1.875H13.4125C16.0125 1.875 18.125 3.9875 18.125 6.5875V13.4125C18.125 14.6623 17.6285 15.861 16.7448 16.7448C15.861 17.6285 14.6623 18.125 13.4125 18.125H6.5875C3.9875 18.125 1.875 16.0125 1.875 13.4125V6.5875C1.875 5.33767 2.37149 4.13903 3.25526 3.25526C4.13903 2.37149 5.33767 1.875 6.5875 1.875ZM6.425 3.5C5.64924 3.5 4.90526 3.80817 4.35671 4.35671C3.80817 4.90526 3.5 5.64924 3.5 6.425V13.575C3.5 15.1919 4.80813 16.5 6.425 16.5H13.575C14.3508 16.5 15.0948 16.1918 15.6433 15.6433C16.1918 15.0948 16.5 14.3508 16.5 13.575V6.425C16.5 4.80813 15.1919 3.5 13.575 3.5H6.425ZM14.2656 4.71875C14.535 4.71875 14.7933 4.82575 14.9838 5.01622C15.1743 5.20669 15.2813 5.46502 15.2813 5.73438C15.2813 6.00374 15.1743 6.26207 14.9838 6.45253C14.7933 6.643 14.535 6.75 14.2656 6.75C13.9963 6.75 13.7379 6.643 13.5475 6.45253C13.357 6.26207 13.25 6.00374 13.25 5.73438C13.25 5.46502 13.357 5.20669 13.5475 5.01622C13.7379 4.82575 13.9963 4.71875 14.2656 4.71875ZM10 5.9375C11.0774 5.9375 12.1108 6.36551 12.8726 7.12738C13.6345 7.88925 14.0625 8.92256 14.0625 10C14.0625 11.0774 13.6345 12.1108 12.8726 12.8726C12.1108 13.6345 11.0774 14.0625 10 14.0625C8.92256 14.0625 7.88925 13.6345 7.12738 12.8726C6.36551 12.1108 5.9375 11.0774 5.9375 10C5.9375 8.92256 6.36551 7.88925 7.12738 7.12738C7.88925 6.36551 8.92256 5.9375 10 5.9375ZM10 7.5625C9.35354 7.5625 8.73355 7.81931 8.27643 8.27643C7.81931 8.73355 7.5625 9.35354 7.5625 10C7.5625 10.6465 7.81931 11.2665 8.27643 11.7236C8.73355 12.1807 9.35354 12.4375 10 12.4375C10.6465 12.4375 11.2665 12.1807 11.7236 11.7236C12.1807 11.2665 12.4375 10.6465 12.4375 10C12.4375 9.35354 12.1807 8.73355 11.7236 8.27643C11.2665 7.81931 10.6465 7.5625 10 7.5625Z" fill="#C3A463"/>
<defs>
<filter id="filter0_f" x="-10.8334" y="-16.6667" width="49.1666" height="49.1667" filterUnits="userSpaceOnUse" color-interpolation-filters="sRGB">
<feFlood flood-opacity="0" result="BackgroundImageFix"/>
<feBlend mode="normal" in="SourceGraphic" in2="BackgroundImageFix" result="shape"/>
<feGaussianBlur stdDeviation="3.33333" result="effect1_foregroundBlur"/>
</filter>
<linearGradient id="paint0_linear" x1="2.6875" y1="17.3125" x2="16.9063" y2="3.09375" gradientUnits="userSpaceOnUse">
<stop stop-color="#FCCB57"/>
<stop offset="0.510926" stop-color="#F24B5C"/>
<stop offset="1" stop-color="#486FD6"/>
</linearGradient>
<radialGradient id="paint1_radial" cx="0" cy="0" r="1" gradientUnits="userSpaceOnUse" gradientTransform="translate(5.83325 17.0834) rotate(90) scale(8.75)">
<stop stop-color="#FFC846"/>
<stop offset="0.701489" stop-color="#FF4B12"/>
</radialGradient>
<radialGradient id="paint2_radial" cx="0" cy="0" r="1" gradientUnits="userSpaceOnUse" gradientTransform="translate(21.6665 8.33337) rotate(90) scale(10)">
<stop stop-color="#C638AF"/>
<stop offset="1" stop-color="#E1427C"/>
</radialGradient>
<radialGradient id="paint3_radial" cx="0" cy="0" r="1" gradientUnits="userSpaceOnUse" gradientTransform="translate(5.83325) rotate(90) scale(10)">
<stop stop-color="#4962CD"/>
<stop offset="1" stop-color="#B436AA"/>
</radialGradient>
</defs>
</svg>
