<svg width="30" height="30" viewBox="0 0 30 30" fill="none" xmlns="http://www.w3.org/2000/svg">
<ellipse cx="11.25" cy="10.4167" rx="11.25" ry="10.4167" fill="#C3A463"/>
<path d="M25.5006 27.7947H25.3731C10.6356 26.9641 8.54305 14.7762 8.25055 11.0566C8.22698 10.7674 8.26187 10.4765 8.35321 10.2005C8.44455 9.92456 8.59055 9.66897 8.78284 9.44841C8.97513 9.22784 9.20994 9.04663 9.47381 8.91516C9.73768 8.78369 10.0254 8.70454 10.3206 8.68225H14.4531C14.7535 8.68197 15.0471 8.7701 15.2958 8.93524C15.5445 9.10038 15.7369 9.33492 15.8481 9.60847L16.9881 12.3577C17.0978 12.625 17.1251 12.9179 17.0664 13.2002C17.0077 13.4825 16.8657 13.7417 16.6581 13.9455L15.0606 15.526C15.3101 16.9159 15.9892 18.1971 17.006 19.1963C18.0228 20.1955 19.3282 20.8645 20.7456 21.1127L22.3731 19.5323C22.5842 19.331 22.8511 19.195 23.1405 19.1414C23.4299 19.0878 23.7291 19.1189 24.0006 19.2309L26.8281 20.3409C27.1029 20.4532 27.3375 20.6433 27.5018 20.8868C27.6661 21.1303 27.7527 21.4162 27.7506 21.7081V25.5894C27.7506 26.1743 27.5135 26.7352 27.0916 27.1488C26.6696 27.5624 26.0973 27.7947 25.5006 27.7947ZM10.5006 10.1524C10.3016 10.1524 10.1109 10.2299 9.97022 10.3677C9.82957 10.5056 9.75055 10.6926 9.75055 10.8875V10.9463C10.0956 15.2981 12.3081 25.5894 25.4556 26.3245C25.5541 26.3305 25.6529 26.3174 25.7462 26.2858C25.8395 26.2543 25.9256 26.205 25.9994 26.1408C26.0733 26.0766 26.1335 25.9988 26.1766 25.9117C26.2197 25.8247 26.2448 25.7301 26.2506 25.6336V21.7081L23.4231 20.5981L21.2706 22.6932L20.9106 22.6491C14.3856 21.8478 13.5006 15.4525 13.5006 15.3863L13.4556 15.0335L15.5856 12.9238L14.4606 10.1524H10.5006Z" fill="#111111"/>
</svg>
