<svg width="40" height="41" viewBox="0 0 40 41" fill="none" xmlns="http://www.w3.org/2000/svg">
<ellipse cx="15" cy="14.3595" rx="15" ry="14.1705" fill="#C3A463"/>
<path d="M34.0007 38H33.8307C14.1807 36.87 11.3907 20.29 11.0007 15.23C10.9693 14.8366 11.0158 14.4408 11.1376 14.0654C11.2594 13.69 11.4541 13.3423 11.7105 13.0423C11.9668 12.7422 12.2799 12.4957 12.6317 12.3168C12.9836 12.138 13.3672 12.0303 13.7607 12H19.2707C19.6713 11.9996 20.0627 12.1195 20.3944 12.3442C20.726 12.5688 20.9825 12.8879 21.1307 13.26L22.6507 17C22.7971 17.3635 22.8334 17.7621 22.7552 18.1461C22.677 18.5301 22.4876 18.8827 22.2107 19.16L20.0807 21.31C20.4135 23.2007 21.3189 24.9437 22.6746 26.303C24.0303 27.6622 25.7709 28.5723 27.6607 28.91L29.8307 26.76C30.1122 26.4862 30.4681 26.3013 30.854 26.2283C31.2399 26.1554 31.6387 26.1977 32.0007 26.35L35.7707 27.86C36.1373 28.0129 36.45 28.2714 36.669 28.6027C36.8881 28.9339 37.0035 29.3229 37.0007 29.72V35C37.0007 35.7956 36.6847 36.5587 36.1221 37.1213C35.5594 37.6839 34.7964 38 34.0007 38ZM14.0007 14C13.7355 14 13.4812 14.1054 13.2936 14.2929C13.1061 14.4804 13.0007 14.7348 13.0007 15V15.08C13.4607 21 16.4107 35 33.9407 36C34.0721 36.0081 34.2038 35.9902 34.3282 35.9473C34.4527 35.9045 34.5674 35.8374 34.6659 35.7501C34.7644 35.6628 34.8447 35.5568 34.9021 35.4384C34.9596 35.32 34.9931 35.1914 35.0007 35.06V29.72L31.2307 28.21L28.3607 31.06L27.8807 31C19.1807 29.91 18.0007 21.21 18.0007 21.12L17.9407 20.64L20.7807 17.77L19.2807 14H14.0007Z" fill="white"/>
</svg>
